<svg width="158" height="28" viewBox="0 0 158 28" fill="none" xmlns="http://www.w3.org/2000/svg">
<path d="M46.0247 12.4375H43.536C43.4906 12.1155 43.3978 11.8295 43.2576 11.5795C43.1175 11.3258 42.9376 11.1098 42.7179 10.9318C42.4982 10.7538 42.2444 10.6174 41.9565 10.5227C41.6724 10.428 41.3637 10.3807 41.0304 10.3807C40.4281 10.3807 39.9035 10.5303 39.4565 10.8295C39.0095 11.125 38.6629 11.5568 38.4167 12.125C38.1705 12.6894 38.0474 13.375 38.0474 14.1818C38.0474 15.0114 38.1705 15.7083 38.4167 16.2727C38.6667 16.8371 39.0152 17.2633 39.4622 17.5511C39.9092 17.839 40.4262 17.983 41.0133 17.983C41.3429 17.983 41.6478 17.9394 41.9281 17.8523C42.2122 17.7652 42.4641 17.6383 42.6838 17.4716C42.9035 17.3011 43.0853 17.0947 43.2292 16.8523C43.377 16.6098 43.4792 16.3333 43.536 16.0227L46.0247 16.0341C45.9603 16.5682 45.7993 17.0833 45.5417 17.5795C45.2879 18.072 44.9451 18.5133 44.5133 18.9034C44.0853 19.2898 43.5739 19.5966 42.9792 19.8239C42.3883 20.0473 41.7198 20.1591 40.9735 20.1591C39.9357 20.1591 39.0076 19.9242 38.1895 19.4545C37.3751 18.9848 36.7311 18.3049 36.2576 17.4148C35.7879 16.5246 35.5531 15.447 35.5531 14.1818C35.5531 12.9129 35.7917 11.8333 36.269 10.9432C36.7463 10.053 37.394 9.375 38.2122 8.90909C39.0304 8.43939 39.9508 8.20455 40.9735 8.20455C41.6478 8.20455 42.2728 8.29924 42.8485 8.48864C43.4281 8.67803 43.9414 8.95455 44.3883 9.31818C44.8353 9.67803 45.1989 10.1193 45.4792 10.642C45.7633 11.1648 45.9451 11.7633 46.0247 12.4375ZM49.0271 23.2727C48.7203 23.2727 48.4324 23.2481 48.1635 23.1989C47.8983 23.1534 47.6786 23.0947 47.5044 23.0227L48.0499 21.2159C48.3339 21.303 48.5896 21.3504 48.8169 21.358C49.048 21.3655 49.2468 21.3125 49.4135 21.1989C49.5839 21.0852 49.7222 20.892 49.8283 20.6193L49.9703 20.25L46.8396 11.2727H49.3851L51.1919 17.6818H51.2828L53.1067 11.2727H55.6692L52.2771 20.9432C52.1143 21.4129 51.8927 21.822 51.6124 22.1705C51.3358 22.5227 50.9855 22.7936 50.5612 22.983C50.137 23.1761 49.6256 23.2727 49.0271 23.2727ZM56.6333 20V8.36364H59.0537V12.7386H59.1276C59.2336 12.5038 59.3871 12.2652 59.5878 12.0227C59.7924 11.7765 60.0575 11.572 60.3833 11.4091C60.7128 11.2424 61.1219 11.1591 61.6105 11.1591C62.2469 11.1591 62.834 11.3258 63.3719 11.6591C63.9098 11.9886 64.3397 12.4867 64.6617 13.1534C64.9836 13.8163 65.1446 14.6477 65.1446 15.6477C65.1446 16.6212 64.9874 17.4432 64.673 18.1136C64.3624 18.7803 63.9382 19.286 63.4003 19.6307C62.8662 19.9716 62.2677 20.142 61.6049 20.142C61.1352 20.142 60.7355 20.0644 60.406 19.9091C60.0802 19.7538 59.8132 19.5587 59.6049 19.3239C59.3965 19.0852 59.2374 18.8447 59.1276 18.6023H59.0196V20H56.6333ZM59.0026 15.6364C59.0026 16.1553 59.0746 16.608 59.2185 16.9943C59.3624 17.3807 59.5708 17.6818 59.8435 17.8977C60.1162 18.1098 60.4477 18.2159 60.8378 18.2159C61.2318 18.2159 61.5651 18.108 61.8378 17.892C62.1105 17.6723 62.317 17.3693 62.4571 16.983C62.6011 16.5928 62.673 16.1439 62.673 15.6364C62.673 15.1326 62.603 14.6894 62.4628 14.3068C62.3227 13.9242 62.1162 13.625 61.8435 13.4091C61.5708 13.1932 61.2355 13.0852 60.8378 13.0852C60.4439 13.0852 60.1105 13.1894 59.8378 13.3977C59.5689 13.6061 59.3624 13.9015 59.2185 14.2841C59.0746 14.6667 59.0026 15.1174 59.0026 15.6364ZM70.417 20.1705C69.5192 20.1705 68.7465 19.9886 68.0988 19.625C67.4548 19.2576 66.9586 18.7386 66.6101 18.0682C66.2617 17.3939 66.0874 16.5966 66.0874 15.6761C66.0874 14.7784 66.2617 13.9905 66.6101 13.3125C66.9586 12.6345 67.4492 12.1061 68.0817 11.7273C68.7181 11.3485 69.4643 11.1591 70.3204 11.1591C70.8961 11.1591 71.4321 11.2519 71.9283 11.4375C72.4283 11.6193 72.8639 11.8939 73.2351 12.2614C73.6101 12.6288 73.9018 13.0909 74.1101 13.6477C74.3185 14.2008 74.4226 14.8485 74.4226 15.5909V16.2557H67.0533V14.7557H72.1442C72.1442 14.4072 72.0685 14.0985 71.917 13.8295C71.7654 13.5606 71.5552 13.3504 71.2863 13.1989C71.0211 13.0436 70.7124 12.9659 70.3601 12.9659C69.9927 12.9659 69.667 13.0511 69.3829 13.2216C69.1026 13.3883 68.8829 13.6136 68.7238 13.8977C68.5647 14.178 68.4832 14.4905 68.4795 14.8352V16.2614C68.4795 16.6932 68.559 17.0663 68.7181 17.3807C68.881 17.6951 69.1101 17.9375 69.4056 18.108C69.7011 18.2784 70.0514 18.3636 70.4567 18.3636C70.7257 18.3636 70.9719 18.3258 71.1954 18.25C71.4189 18.1742 71.6101 18.0606 71.7692 17.9091C71.9283 17.7576 72.0495 17.572 72.1329 17.3523L74.3715 17.5C74.2579 18.0379 74.0249 18.5076 73.6726 18.9091C73.3242 19.3068 72.8734 19.6174 72.3204 19.8409C71.7711 20.0606 71.1367 20.1705 70.417 20.1705ZM75.6822 20V11.2727H78.0288V12.7955H78.1197C78.2788 12.2538 78.5458 11.8447 78.9208 11.5682C79.2958 11.2879 79.7276 11.1477 80.2163 11.1477C80.3375 11.1477 80.4682 11.1553 80.6083 11.1705C80.7485 11.1856 80.8716 11.2064 80.9776 11.233V13.3807C80.864 13.3466 80.7068 13.3163 80.5061 13.2898C80.3053 13.2633 80.1216 13.25 79.9549 13.25C79.5989 13.25 79.2807 13.3277 79.0004 13.483C78.7239 13.6345 78.5042 13.8466 78.3413 14.1193C78.1822 14.392 78.1026 14.7064 78.1026 15.0625V20H75.6822ZM83.3196 20H80.6832L84.7003 8.36364H87.8707L91.8821 20H89.2457L86.3309 11.0227H86.24L83.3196 20ZM83.1548 15.4261H89.3821V17.3466H83.1548V15.4261ZM92.9626 20V8.36364H97.5536C98.4361 8.36364 99.188 8.5322 99.8092 8.86932C100.43 9.20265 100.904 9.66667 101.23 10.2614C101.559 10.8523 101.724 11.5341 101.724 12.3068C101.724 13.0795 101.557 13.7614 101.224 14.3523C100.891 14.9432 100.408 15.4034 99.7751 15.733C99.1464 16.0625 98.385 16.2273 97.4911 16.2273H94.5649V14.2557H97.0933C97.5668 14.2557 97.957 14.1742 98.2638 14.0114C98.5744 13.8447 98.8054 13.6155 98.957 13.3239C99.1123 13.0284 99.1899 12.6894 99.1899 12.3068C99.1899 11.9205 99.1123 11.5833 98.957 11.2955C98.8054 11.0038 98.5744 10.7784 98.2638 10.6193C97.9532 10.4564 97.5592 10.375 97.082 10.375H95.4229V20H92.9626ZM105.462 8.36364V20H103.002V8.36364H105.462ZM114.382 13.7614L112.166 13.8977C112.129 13.7083 112.047 13.5379 111.922 13.3864C111.797 13.2311 111.632 13.108 111.428 13.017C111.227 12.9223 110.986 12.875 110.706 12.875C110.331 12.875 110.015 12.9545 109.757 13.1136C109.5 13.2689 109.371 13.4773 109.371 13.7386C109.371 13.947 109.454 14.1231 109.621 14.267C109.788 14.411 110.074 14.5265 110.479 14.6136L112.058 14.9318C112.907 15.1061 113.539 15.3864 113.956 15.7727C114.373 16.1591 114.581 16.6667 114.581 17.2955C114.581 17.8674 114.413 18.3693 114.075 18.8011C113.742 19.233 113.284 19.5701 112.7 19.8125C112.121 20.0511 111.452 20.1705 110.695 20.1705C109.539 20.1705 108.619 19.9299 107.933 19.4489C107.252 18.964 106.852 18.3049 106.735 17.4716L109.115 17.3466C109.187 17.6989 109.361 17.9678 109.638 18.1534C109.914 18.3352 110.269 18.4261 110.7 18.4261C111.125 18.4261 111.466 18.3447 111.723 18.1818C111.985 18.0152 112.117 17.8011 112.121 17.5398C112.117 17.3201 112.024 17.1402 111.843 17C111.661 16.8561 111.38 16.7462 111.002 16.6705L109.49 16.3693C108.638 16.1989 108.004 15.9034 107.587 15.483C107.174 15.0625 106.968 14.5265 106.968 13.875C106.968 13.3144 107.119 12.8314 107.422 12.4261C107.729 12.0208 108.159 11.7083 108.712 11.4886C109.269 11.2689 109.92 11.1591 110.666 11.1591C111.769 11.1591 112.636 11.392 113.269 11.858C113.905 12.3239 114.276 12.9583 114.382 13.7614Z" fill="black"/>
<rect x="117.746" y="5" width="40" height="18" rx="4" fill="#298FDF"/>
<path d="M122.403 19V8.81818H125.167V12.7955H128.826V8.81818H131.59V19H128.826V15.0227H125.167V19H122.403ZM139.908 8.81818H142.672V15.3409C142.672 16.1165 142.487 16.7876 142.115 17.3544C141.748 17.9179 141.234 18.3537 140.574 18.6619C139.915 18.9669 139.149 19.1193 138.277 19.1193C137.399 19.1193 136.63 18.9669 135.971 18.6619C135.311 18.3537 134.797 17.9179 134.429 17.3544C134.065 16.7876 133.883 16.1165 133.883 15.3409V8.81818H136.647V15.1023C136.647 15.4171 136.716 15.6989 136.856 15.9474C136.995 16.1927 137.187 16.3849 137.432 16.5241C137.681 16.6634 137.963 16.733 138.277 16.733C138.596 16.733 138.877 16.6634 139.123 16.5241C139.368 16.3849 139.56 16.1927 139.699 15.9474C139.838 15.6989 139.908 15.4171 139.908 15.1023V8.81818ZM144.966 19V8.81818H149.381C150.156 8.81818 150.808 8.92259 151.335 9.13139C151.865 9.3402 152.264 9.63518 152.533 10.0163C152.805 10.3975 152.94 10.8466 152.94 11.3636C152.94 11.7382 152.858 12.0795 152.692 12.3878C152.529 12.696 152.301 12.9545 152.006 13.1634C151.711 13.3688 151.366 13.5114 150.972 13.5909V13.6903C151.409 13.7069 151.807 13.8179 152.165 14.0234C152.523 14.2256 152.808 14.5057 153.02 14.8636C153.232 15.2183 153.338 15.6359 153.338 16.1165C153.338 16.6733 153.192 17.1688 152.901 17.603C152.612 18.0372 152.201 18.3786 151.668 18.6271C151.134 18.8757 150.498 19 149.759 19H144.966ZM147.73 16.7926H149.023C149.487 16.7926 149.835 16.7064 150.067 16.5341C150.299 16.3584 150.415 16.0999 150.415 15.7585C150.415 15.5199 150.36 15.3177 150.251 15.152C150.141 14.9863 149.986 14.8603 149.784 14.7741C149.585 14.688 149.344 14.6449 149.063 14.6449H147.73V16.7926ZM147.73 12.9347H148.864C149.106 12.9347 149.319 12.8965 149.505 12.8203C149.691 12.7441 149.835 12.6347 149.938 12.4922C150.044 12.3464 150.097 12.169 150.097 11.9602C150.097 11.6454 149.984 11.4051 149.759 11.2393C149.533 11.0703 149.248 10.9858 148.904 10.9858H147.73V12.9347Z" fill="white"/>
<path d="M26.7463 14.3731C26.7463 6.98736 20.7589 1 13.3731 1C5.98736 1 0 6.98736 0 14.3731C0 21.7589 5.98736 27.7463 13.3731 27.7463C20.7589 27.7463 26.7463 21.7589 26.7463 14.3731Z" fill="url(#paint0_linear_2756_25684)"/>
<path d="M12.065 19.8695C11.9736 19.8694 11.8827 19.8566 11.7948 19.8316C11.5447 19.76 11.3332 19.5921 11.2069 19.3647C11.0806 19.1373 11.0497 18.869 11.1211 18.6189L13.7375 9.46175C13.7708 9.33559 13.829 9.21736 13.9086 9.11396C13.9882 9.01056 14.0876 8.92408 14.201 8.85958C14.3145 8.79507 14.4396 8.75385 14.5692 8.73831C14.6987 8.72277 14.8301 8.73323 14.9555 8.76907C15.081 8.80492 15.1981 8.86544 15.2999 8.94708C15.4017 9.02872 15.4861 9.12984 15.5484 9.24453C15.6106 9.35922 15.6493 9.48518 15.6623 9.61502C15.6752 9.74486 15.6622 9.87598 15.6238 10.0007L13.0075 19.1579C12.949 19.3627 12.8254 19.543 12.6553 19.6714C12.4853 19.7998 12.278 19.8693 12.065 19.8695Z" fill="white"/>
<defs>
<linearGradient id="paint0_linear_2756_25684" x1="3.92836" y1="4.92836" x2="22.8179" y2="23.8179" gradientUnits="userSpaceOnUse">
<stop stop-color="#2A94E7"/>
<stop offset="1" stop-color="#2685D0"/>
</linearGradient>
</defs>
</svg>
