<svg width="500" height="500" viewBox="0 0 500 500" fill="none" xmlns="http://www.w3.org/2000/svg">
<path d="M0 0H500V500H0V0ZM126.35 137.65C118.45 139.21 111.69 144.99 108.51 152.33C106.43 157.63 106.94 163.44 106.89 169.02C106.95 223.67 106.85 278.32 106.91 332.97C106.99 339.59 106.07 346.67 109.29 352.75C112.99 361.02 121.89 366.52 130.93 366.25C208.61 366.27 286.3 366.26 363.98 366.28C368.37 366.25 372.89 366.46 377.14 365.15C385.1 362.45 391.25 355.23 392.81 346.99C393.31 344.02 393.27 341 393.27 338C393.25 279 393.29 219.99 393.26 160.99C393.57 149.2 383.52 138.63 372.04 137.4C291.36 137.33 210.68 137.41 130 137.34C128.77 137.36 127.56 137.46 126.35 137.65Z" fill="#E7EDF2"/>
<path d="M129.31 156.55C133.16 155.96 137.07 156.36 140.95 156.29C213.97 156.31 287 156.29 360.03 156.3C363.89 156.37 367.8 155.95 371.64 156.57C373.69 157.47 374.3 159.91 374.27 161.96C374.31 219.31 374.23 276.67 374.3 334.02C374.22 337.58 374.79 341.27 373.71 344.72C372.74 346.94 370.14 347.44 367.97 347.42C289.65 347.39 211.32 347.39 133 347.42C130.78 347.34 128.1 347.38 126.69 345.33C125.85 343.69 125.9 341.77 125.79 339.98C125.86 280.97 125.82 221.96 125.8 162.96C125.64 160.41 126.58 157.29 129.31 156.55ZM166.36 176.46C153.87 179.59 144.37 192.06 145.14 205.02C145.11 213.06 149.14 220.65 155.19 225.81C162.49 232.66 173.75 234.35 183.05 231.08C195.3 227.08 203.71 213.78 202.05 200.98C201.46 192.84 196.45 185.72 190.17 180.82C183.41 175.86 174.44 174.5 166.36 176.46ZM285.73 206.77C263.53 228.88 241.38 251.07 219.24 273.26C218.2 274.04 216.84 276.02 215.49 274.55C210.79 270.64 206.95 265.83 202.59 261.56C199.33 258.43 196.07 255.3 192.81 252.17C177.06 267.62 161.6 283.38 145.94 298.91C144.79 300.31 145.2 302.31 145.03 304C145.13 312 145 320 145.13 328.01C151.42 328.42 157.73 328.18 164.03 328.23C227.69 328.16 291.35 328.34 355 328.14C355.13 306.11 355.2 284.05 355.02 262.04C352.55 257.93 348.34 255.26 345.19 251.7C327.8 234.37 310.64 216.8 292.96 199.76C290.45 201.99 288.01 204.29 285.73 206.77Z" fill="#E7EDF2"/>
<path d="M126.35 137.65C127.56 137.46 128.77 137.36 130 137.34C210.68 137.41 291.36 137.33 372.04 137.4C383.52 138.63 393.57 149.2 393.26 160.99C393.29 219.99 393.25 279 393.27 338C393.27 341 393.31 344.02 392.81 346.99C391.25 355.23 385.1 362.45 377.14 365.15C372.89 366.46 368.37 366.25 363.98 366.28C286.3 366.26 208.61 366.27 130.93 366.25C121.89 366.52 112.99 361.02 109.29 352.75C106.07 346.67 106.99 339.59 106.91 332.97C106.85 278.32 106.95 223.67 106.89 169.02C106.94 163.44 106.43 157.63 108.51 152.33C111.69 144.99 118.45 139.21 126.35 137.65ZM129.31 156.55C126.58 157.29 125.64 160.41 125.8 162.96C125.82 221.96 125.86 280.97 125.79 339.98C125.9 341.77 125.85 343.69 126.69 345.33C128.1 347.38 130.78 347.34 133 347.42C211.32 347.39 289.65 347.39 367.97 347.42C370.14 347.44 372.74 346.94 373.71 344.72C374.79 341.27 374.22 337.58 374.3 334.02C374.23 276.67 374.31 219.31 374.27 161.96C374.3 159.91 373.69 157.47 371.64 156.57C367.8 155.95 363.89 156.37 360.03 156.3C287 156.29 213.97 156.31 140.95 156.29C137.07 156.36 133.16 155.96 129.31 156.55Z" fill="#ADC0D1"/>
<path d="M166.36 176.46C174.44 174.5 183.41 175.86 190.17 180.82C196.45 185.72 201.46 192.84 202.05 200.98C203.71 213.78 195.3 227.08 183.05 231.08C173.75 234.35 162.49 232.66 155.19 225.81C149.14 220.65 145.11 213.06 145.14 205.02C144.37 192.06 153.87 179.59 166.36 176.46Z" fill="#ADC0D1"/>
<path d="M285.73 206.77C288.01 204.29 290.45 201.99 292.96 199.76C310.64 216.8 327.8 234.37 345.19 251.7C348.34 255.26 352.55 257.93 355.02 262.04C355.2 284.05 355.13 306.11 355 328.14C291.35 328.34 227.69 328.16 164.03 328.23C157.73 328.18 151.42 328.42 145.13 328.01C145 320 145.13 312 145.03 304C145.2 302.31 144.79 300.31 145.94 298.91C161.6 283.38 177.06 267.62 192.81 252.17C196.07 255.3 199.33 258.43 202.59 261.56C206.95 265.83 210.79 270.64 215.49 274.55C216.84 276.02 218.2 274.04 219.24 273.26C241.38 251.07 263.53 228.88 285.73 206.77Z" fill="#ADC0D1"/>
</svg>
