<svg width="220" height="140" viewBox="0 0 220 140" fill="none" xmlns="http://www.w3.org/2000/svg">
<g clip-path="url(#clip0_3826_85790)">
<rect width="196" height="24" transform="translate(6 12)" fill="#F3F4F6"/>
<rect width="0" height="800" transform="translate(18 40)" fill="black" fill-opacity="0.03"/>
<path d="M18 40L18 840" stroke="black" stroke-opacity="0.03"/>
<path d="M23.4405 20.6787H22.3942C22.323 20.6787 22.256 20.7136 22.2142 20.7708L18.2507 26.234L14.2873 20.7708C14.2454 20.7136 14.1785 20.6787 14.1073 20.6787H13.061C12.9703 20.6787 12.9173 20.7819 12.9703 20.8559L17.8894 27.6374C18.068 27.883 18.4335 27.883 18.6107 27.6374L23.5298 20.8559C23.5842 20.7819 23.5311 20.6787 23.4405 20.6787V20.6787Z" fill="#6B7280"/>
<path d="M35.233 29V18.8182H41.3381V19.9119H36.4659V23.3523H40.8807V24.446H36.4659V29H35.233ZM43.2907 29V21.3636H44.464V29H43.2907ZM43.8873 20.0909C43.6586 20.0909 43.4614 20.013 43.2956 19.8572C43.1332 19.7015 43.052 19.5142 43.052 19.2955C43.052 19.0767 43.1332 18.8894 43.2956 18.7337C43.4614 18.5779 43.6586 18.5 43.8873 18.5C44.1159 18.5 44.3115 18.5779 44.4739 18.7337C44.6396 18.8894 44.7225 19.0767 44.7225 19.2955C44.7225 19.5142 44.6396 19.7015 44.4739 19.8572C44.3115 20.013 44.1159 20.0909 43.8873 20.0909ZM46.6129 29V21.3636H47.7464V22.517H47.826C47.9652 22.1392 48.2171 21.8326 48.5817 21.5973C48.9463 21.362 49.3572 21.2443 49.8146 21.2443C49.9008 21.2443 50.0085 21.246 50.1378 21.2493C50.267 21.2526 50.3648 21.2576 50.4311 21.2642V22.4574C50.3913 22.4474 50.3002 22.4325 50.1577 22.4126C50.0185 22.3894 49.871 22.3778 49.7152 22.3778C49.344 22.3778 49.0125 22.4557 48.7209 22.6115C48.4325 22.764 48.2038 22.9761 48.0348 23.2479C47.8691 23.5163 47.7862 23.8229 47.7862 24.1676V29H46.6129ZM57.231 23.0739L56.177 23.3722C56.1107 23.1965 56.013 23.0258 55.8837 22.8601C55.7578 22.6911 55.5854 22.5518 55.3667 22.4425C55.1479 22.3331 54.8678 22.2784 54.5265 22.2784C54.0591 22.2784 53.6697 22.3861 53.3581 22.6016C53.0499 22.8137 52.8958 23.0838 52.8958 23.4119C52.8958 23.7036 53.0018 23.9339 53.214 24.103C53.4261 24.272 53.7575 24.4129 54.2083 24.5256L55.3418 24.804C56.0246 24.9697 56.5333 25.2232 56.8681 25.5646C57.2028 25.9027 57.3702 26.3385 57.3702 26.8722C57.3702 27.3097 57.2443 27.7008 56.9924 28.0455C56.7438 28.3902 56.3958 28.6619 55.9483 28.8608C55.5009 29.0597 54.9805 29.1591 54.3873 29.1591C53.6084 29.1591 52.9637 28.9901 52.4533 28.652C51.9429 28.3139 51.6197 27.8201 51.4838 27.1705L52.5975 26.892C52.7035 27.303 52.9041 27.6113 53.199 27.8168C53.4973 28.0223 53.8868 28.125 54.3674 28.125C54.9142 28.125 55.3484 28.009 55.6699 27.777C55.9947 27.5417 56.1571 27.2599 56.1571 26.9318C56.1571 26.6667 56.0643 26.4446 55.8787 26.2656C55.6931 26.0833 55.4081 25.9474 55.0236 25.858L53.7509 25.5597C53.0516 25.3939 52.5378 25.1371 52.2097 24.7891C51.8849 24.4377 51.7225 23.9986 51.7225 23.4716C51.7225 23.0407 51.8435 22.6596 52.0854 22.3281C52.3307 21.9967 52.6638 21.7365 53.0847 21.5476C53.5089 21.3587 53.9895 21.2642 54.5265 21.2642C55.2821 21.2642 55.8754 21.4299 56.3063 21.7614C56.7405 22.0928 57.0487 22.5303 57.231 23.0739ZM62.4574 21.3636V22.358H58.5V21.3636H62.4574ZM59.6534 19.5341H60.8267V26.8125C60.8267 27.1439 60.8748 27.3925 60.9709 27.5582C61.0703 27.7206 61.1963 27.83 61.3487 27.8864C61.5045 27.9394 61.6686 27.9659 61.8409 27.9659C61.9702 27.9659 62.0762 27.9593 62.1591 27.946C62.242 27.9295 62.3082 27.9162 62.358 27.9062L62.5966 28.9602C62.517 28.9901 62.406 29.0199 62.2635 29.0497C62.121 29.0829 61.9403 29.0994 61.7216 29.0994C61.3902 29.0994 61.0653 29.0282 60.7472 28.8857C60.4323 28.7431 60.1705 28.526 59.9616 28.2344C59.7562 27.9427 59.6534 27.5748 59.6534 27.1307V19.5341ZM71.2422 32.0227C70.6754 32.0227 70.1882 31.9498 69.7805 31.804C69.3729 31.6615 69.0331 31.4725 68.7614 31.2372C68.4929 31.0052 68.2791 30.7566 68.12 30.4915L69.0547 29.8352C69.1607 29.9744 69.295 30.1335 69.4574 30.3125C69.6198 30.4948 69.8419 30.6522 70.1236 30.7848C70.4086 30.9207 70.7815 30.9886 71.2422 30.9886C71.8587 30.9886 72.3674 30.8395 72.7685 30.5412C73.1695 30.2429 73.37 29.7756 73.37 29.1392V27.5881H73.2706C73.1844 27.7273 73.0618 27.8996 72.9027 28.1051C72.7469 28.3073 72.5215 28.4879 72.2266 28.647C71.9349 28.8028 71.5405 28.8807 71.0433 28.8807C70.4268 28.8807 69.8733 28.7348 69.3828 28.4432C68.8956 28.1515 68.5095 27.7273 68.2244 27.1705C67.9427 26.6136 67.8018 25.9375 67.8018 25.142C67.8018 24.3598 67.9394 23.6787 68.2145 23.0987C68.4896 22.5154 68.8724 22.0646 69.3629 21.7464C69.8535 21.425 70.4202 21.2642 71.0632 21.2642C71.5604 21.2642 71.9548 21.3471 72.2464 21.5128C72.5414 21.6752 72.7668 21.8608 72.9226 22.0696C73.0817 22.2751 73.2043 22.4441 73.2905 22.5767H73.4098V21.3636H74.5433V29.2188C74.5433 29.875 74.3942 30.4086 74.0959 30.8196C73.8009 31.2339 73.4032 31.5372 72.9027 31.7294C72.4055 31.925 71.852 32.0227 71.2422 32.0227ZM71.2024 27.8267C71.6731 27.8267 72.0708 27.719 72.3956 27.5036C72.7204 27.2881 72.9673 26.9782 73.1364 26.5739C73.3054 26.1695 73.3899 25.6856 73.3899 25.1222C73.3899 24.572 73.3071 24.0864 73.1413 23.6655C72.9756 23.2446 72.7304 22.9148 72.4055 22.6761C72.0807 22.4375 71.6797 22.3182 71.2024 22.3182C70.7053 22.3182 70.291 22.4441 69.9595 22.696C69.6314 22.9479 69.3845 23.286 69.2188 23.7102C69.0563 24.1345 68.9751 24.6051 68.9751 25.1222C68.9751 25.6525 69.058 26.1214 69.2237 26.5291C69.3928 26.9335 69.6413 27.2517 69.9695 27.4837C70.3009 27.7124 70.7119 27.8267 71.2024 27.8267ZM76.6911 29V21.3636H77.8246V22.517H77.9041C78.0433 22.1392 78.2952 21.8326 78.6598 21.5973C79.0244 21.362 79.4354 21.2443 79.8928 21.2443C79.9789 21.2443 80.0866 21.246 80.2159 21.2493C80.3452 21.2526 80.4429 21.2576 80.5092 21.2642V22.4574C80.4695 22.4474 80.3783 22.4325 80.2358 22.4126C80.0966 22.3894 79.9491 22.3778 79.7933 22.3778C79.4221 22.3778 79.0907 22.4557 78.799 22.6115C78.5107 22.764 78.282 22.9761 78.1129 23.2479C77.9472 23.5163 77.8643 23.8229 77.8643 24.1676V29H76.6911ZM84.7699 29.1591C84.0805 29.1591 83.4756 28.995 82.9553 28.6669C82.4382 28.3388 82.0339 27.8797 81.7422 27.2898C81.4538 26.6998 81.3097 26.0104 81.3097 25.2216C81.3097 24.4261 81.4538 23.7318 81.7422 23.1385C82.0339 22.5452 82.4382 22.0845 82.9553 21.7564C83.4756 21.4283 84.0805 21.2642 84.7699 21.2642C85.4593 21.2642 86.0625 21.4283 86.5795 21.7564C87.0999 22.0845 87.5043 22.5452 87.7926 23.1385C88.0843 23.7318 88.2301 24.4261 88.2301 25.2216C88.2301 26.0104 88.0843 26.6998 87.7926 27.2898C87.5043 27.8797 87.0999 28.3388 86.5795 28.6669C86.0625 28.995 85.4593 29.1591 84.7699 29.1591ZM84.7699 28.1051C85.2936 28.1051 85.7244 27.9709 86.0625 27.7024C86.4006 27.4339 86.6508 27.081 86.8132 26.6435C86.9756 26.206 87.0568 25.732 87.0568 25.2216C87.0568 24.7112 86.9756 24.2356 86.8132 23.7947C86.6508 23.3539 86.4006 22.9976 86.0625 22.7259C85.7244 22.4541 85.2936 22.3182 84.7699 22.3182C84.2462 22.3182 83.8153 22.4541 83.4773 22.7259C83.1392 22.9976 82.889 23.3539 82.7266 23.7947C82.5642 24.2356 82.483 24.7112 82.483 25.2216C82.483 25.732 82.5642 26.206 82.7266 26.6435C82.889 27.081 83.1392 27.4339 83.4773 27.7024C83.8153 27.9709 84.2462 28.1051 84.7699 28.1051ZM94.8336 25.8778V21.3636H96.0069V29H94.8336V27.7074H94.7541C94.5751 28.0952 94.2967 28.425 93.9189 28.6967C93.541 28.9652 93.0637 29.0994 92.487 29.0994C92.0098 29.0994 91.5855 28.995 91.2143 28.7862C90.8431 28.5741 90.5514 28.2559 90.3393 27.8317C90.1272 27.4041 90.0211 26.8655 90.0211 26.2159V21.3636H91.1944V26.1364C91.1944 26.6932 91.3502 27.1373 91.6618 27.4688C91.9766 27.8002 92.3777 27.9659 92.8649 27.9659C93.1565 27.9659 93.4532 27.8913 93.7548 27.7422C94.0597 27.593 94.3149 27.3643 94.5204 27.0561C94.7292 26.7479 94.8336 26.3551 94.8336 25.8778ZM98.1559 31.8636V21.3636H99.2894V22.5767H99.4286C99.5148 22.4441 99.6341 22.2751 99.7866 22.0696C99.9424 21.8608 100.164 21.6752 100.453 21.5128C100.744 21.3471 101.139 21.2642 101.636 21.2642C102.279 21.2642 102.846 21.425 103.336 21.7464C103.827 22.0679 104.21 22.5237 104.485 23.1136C104.76 23.7036 104.897 24.3996 104.897 25.2017C104.897 26.0104 104.76 26.7114 104.485 27.3047C104.21 27.8946 103.828 28.352 103.341 28.6768C102.854 28.9983 102.292 29.1591 101.656 29.1591C101.165 29.1591 100.773 29.0779 100.478 28.9155C100.183 28.7498 99.9556 28.5625 99.7965 28.3537C99.6374 28.1416 99.5148 27.9659 99.4286 27.8267H99.3292V31.8636H98.1559ZM99.3093 25.1818C99.3093 25.7585 99.3938 26.2673 99.5629 26.7081C99.7319 27.1456 99.9788 27.4886 100.304 27.7372C100.628 27.9825 101.026 28.1051 101.497 28.1051C101.987 28.1051 102.397 27.9759 102.725 27.7173C103.056 27.4555 103.305 27.1042 103.471 26.6634C103.64 26.2192 103.724 25.7254 103.724 25.1818C103.724 24.6449 103.641 24.161 103.475 23.7301C103.313 23.2959 103.066 22.9529 102.735 22.701C102.407 22.4458 101.994 22.3182 101.497 22.3182C101.02 22.3182 100.618 22.4392 100.294 22.6811C99.9689 22.9197 99.7236 23.2545 99.5579 23.6854C99.3922 24.1129 99.3093 24.6117 99.3093 25.1818Z" fill="#6B7280"/>
<rect width="172" height="16" transform="translate(30 40)" fill="#F3F4F6"/>
<path d="M40.9474 52V43.2727H43.8963C44.581 43.2727 45.1406 43.3963 45.5753 43.6435C46.0128 43.8878 46.3366 44.2188 46.5469 44.6364C46.7571 45.054 46.8622 45.5199 46.8622 46.0341C46.8622 46.5483 46.7571 47.0156 46.5469 47.4361C46.3395 47.8565 46.0185 48.1918 45.5838 48.4418C45.1491 48.6889 44.5923 48.8125 43.9134 48.8125H41.7997V47.875H43.8793C44.348 47.875 44.7244 47.794 45.0085 47.6321C45.2926 47.4702 45.4986 47.2514 45.6264 46.9759C45.7571 46.6974 45.8224 46.3835 45.8224 46.0341C45.8224 45.6847 45.7571 45.3722 45.6264 45.0966C45.4986 44.821 45.2912 44.6051 45.0043 44.4489C44.7173 44.2898 44.3366 44.2102 43.8622 44.2102H42.0043V52H40.9474ZM55.9283 47.6364C55.9283 48.5568 55.7621 49.3523 55.4297 50.0227C55.0973 50.6932 54.6413 51.2102 54.0618 51.5739C53.4822 51.9375 52.8203 52.1193 52.076 52.1193C51.3317 52.1193 50.6697 51.9375 50.0902 51.5739C49.5107 51.2102 49.0547 50.6932 48.7223 50.0227C48.3899 49.3523 48.2237 48.5568 48.2237 47.6364C48.2237 46.7159 48.3899 45.9205 48.7223 45.25C49.0547 44.5795 49.5107 44.0625 50.0902 43.6989C50.6697 43.3352 51.3317 43.1534 52.076 43.1534C52.8203 43.1534 53.4822 43.3352 54.0618 43.6989C54.6413 44.0625 55.0973 44.5795 55.4297 45.25C55.7621 45.9205 55.9283 46.7159 55.9283 47.6364ZM54.9055 47.6364C54.9055 46.8807 54.7791 46.2429 54.5263 45.723C54.2763 45.2031 53.9368 44.8097 53.5078 44.5426C53.0817 44.2756 52.6044 44.142 52.076 44.142C51.5476 44.142 51.0689 44.2756 50.6399 44.5426C50.2138 44.8097 49.8743 45.2031 49.6214 45.723C49.3714 46.2429 49.2464 46.8807 49.2464 47.6364C49.2464 48.392 49.3714 49.0298 49.6214 49.5497C49.8743 50.0696 50.2138 50.4631 50.6399 50.7301C51.0689 50.9972 51.5476 51.1307 52.076 51.1307C52.6044 51.1307 53.0817 50.9972 53.5078 50.7301C53.9368 50.4631 54.2763 50.0696 54.5263 49.5497C54.7791 49.0298 54.9055 48.392 54.9055 47.6364ZM62.478 45.4545C62.4268 45.0227 62.2195 44.6875 61.8558 44.4489C61.4922 44.2102 61.0462 44.0909 60.5178 44.0909C60.1314 44.0909 59.7933 44.1534 59.5036 44.2784C59.2166 44.4034 58.9922 44.5753 58.8303 44.794C58.6712 45.0128 58.5916 45.2614 58.5916 45.5398C58.5916 45.7727 58.647 45.973 58.7578 46.1406C58.8714 46.3054 59.0163 46.4432 59.1925 46.554C59.3686 46.6619 59.5533 46.7514 59.7464 46.8224C59.9396 46.8906 60.1172 46.946 60.2791 46.9886L61.1655 47.2273C61.3928 47.2869 61.6456 47.3693 61.924 47.4744C62.2053 47.5795 62.4737 47.723 62.7294 47.9048C62.9879 48.0838 63.201 48.3139 63.3686 48.5952C63.5362 48.8764 63.62 49.2216 63.62 49.6307C63.62 50.1023 63.4964 50.5284 63.2493 50.9091C63.005 51.2898 62.647 51.5923 62.1754 51.8168C61.7067 52.0412 61.1371 52.1534 60.4666 52.1534C59.8416 52.1534 59.3004 52.0526 58.843 51.8509C58.3885 51.6491 58.0305 51.3679 57.7692 51.0071C57.5107 50.6463 57.3643 50.2273 57.3303 49.75H58.4212C58.4496 50.0795 58.5604 50.3523 58.7536 50.5682C58.9496 50.7812 59.1967 50.9403 59.495 51.0455C59.7962 51.1477 60.12 51.1989 60.4666 51.1989C60.87 51.1989 61.2322 51.1335 61.5533 51.0028C61.8743 50.8693 62.1286 50.6847 62.3161 50.4489C62.5036 50.2102 62.5973 49.9318 62.5973 49.6136C62.5973 49.3239 62.5163 49.0881 62.3544 48.9062C62.1925 48.7244 61.9794 48.5767 61.7152 48.4631C61.451 48.3494 61.1655 48.25 60.8587 48.1648L59.7848 47.858C59.103 47.6619 58.5632 47.3821 58.1655 47.0185C57.7678 46.6548 57.5689 46.179 57.5689 45.5909C57.5689 45.1023 57.701 44.6761 57.9652 44.3125C58.2322 43.946 58.5902 43.6619 59.0391 43.4602C59.4908 43.2557 59.995 43.1534 60.5518 43.1534C61.1143 43.1534 61.6143 43.2543 62.0518 43.456C62.4893 43.6548 62.8359 43.9276 63.0916 44.2741C63.3501 44.6207 63.4865 45.0142 63.5007 45.4545H62.478ZM64.8803 44.2102V43.2727H71.4258V44.2102H68.6815V52H67.6246V44.2102H64.8803Z" fill="#FFB323"/>
<rect x="76" y="41.5" width="150" height="13" rx="2" fill="#E5E7EB"/>
<rect width="172" height="16" transform="translate(30 64)" fill="#F3F4F6"/>
<path d="M55.2337 70C55.1399 69.7131 55.0163 69.456 54.8629 69.2287C54.7124 68.9986 54.532 68.8026 54.3217 68.6406C54.1143 68.4787 53.8786 68.3551 53.6143 68.2699C53.3501 68.1847 53.0604 68.142 52.745 68.142C52.228 68.142 51.7578 68.2756 51.3345 68.5426C50.9112 68.8097 50.5746 69.2031 50.3246 69.723C50.0746 70.2429 49.9496 70.8807 49.9496 71.6364C49.9496 72.392 50.076 73.0298 50.3288 73.5497C50.5817 74.0696 50.924 74.4631 51.3558 74.7301C51.7876 74.9972 52.2734 75.1307 52.8132 75.1307C53.3132 75.1307 53.7536 75.0241 54.1342 74.8111C54.5178 74.5952 54.8161 74.2912 55.0291 73.8991C55.245 73.5043 55.353 73.0398 55.353 72.5057L55.6768 72.5739H53.0518V71.6364H56.3757V72.5739C56.3757 73.2926 56.2223 73.9176 55.9155 74.4489C55.6115 74.9801 55.1911 75.392 54.6541 75.6847C54.12 75.9744 53.5064 76.1193 52.8132 76.1193C52.0405 76.1193 51.3615 75.9375 50.7763 75.5739C50.1939 75.2102 49.7393 74.6932 49.4126 74.0227C49.0888 73.3523 48.9268 72.5568 48.9268 71.6364C48.9268 70.946 49.0192 70.3253 49.2038 69.7741C49.3913 69.2202 49.6555 68.7486 49.9964 68.3594C50.3374 67.9702 50.7408 67.6719 51.2067 67.4645C51.6726 67.2571 52.1854 67.1534 52.745 67.1534C53.2053 67.1534 53.6342 67.223 54.032 67.3622C54.4325 67.4986 54.7891 67.6932 55.1016 67.946C55.4169 68.196 55.6797 68.4957 55.8899 68.8452C56.1001 69.1918 56.245 69.5767 56.3246 70H55.2337ZM58.1857 76V67.2727H63.4528V68.2102H59.2425V71.1591H63.18V72.0966H59.2425V75.0625H63.521V76H58.1857ZM64.8803 68.2102V67.2727H71.4258V68.2102H68.6815V76H67.6246V68.2102H64.8803Z" fill="#23C16B"/>
<rect x="76" y="65.5" width="100" height="13" rx="2" fill="#E5E7EB"/>
</g>
<g clip-path="url(#clip1_3826_85790)">
<rect width="196" height="24" transform="translate(6 84)" fill="#F3F4F6"/>
<path d="M23.4405 92.6787H22.3942C22.323 92.6787 22.256 92.7136 22.2142 92.7708L18.2507 98.234L14.2873 92.7708C14.2454 92.7136 14.1785 92.6787 14.1073 92.6787H13.061C12.9703 92.6787 12.9173 92.7819 12.9703 92.8559L17.8894 99.6374C18.068 99.883 18.4335 99.883 18.6107 99.6374L23.5298 92.8559C23.5842 92.7819 23.5311 92.6787 23.4405 92.6787V92.6787Z" fill="#6B7280"/>
<path d="M40.8011 93.3636C40.7415 92.8598 40.4995 92.4688 40.0753 92.1903C39.651 91.9119 39.1307 91.7727 38.5142 91.7727C38.0634 91.7727 37.669 91.8456 37.331 91.9915C36.9962 92.1373 36.7344 92.3378 36.5455 92.593C36.3598 92.8482 36.267 93.1383 36.267 93.4631C36.267 93.7348 36.3317 93.9685 36.4609 94.1641C36.5935 94.3563 36.7625 94.517 36.968 94.6463C37.1735 94.7723 37.389 94.8767 37.6143 94.9595C37.8397 95.0391 38.0469 95.1037 38.2358 95.1534L39.2699 95.4318C39.535 95.5014 39.83 95.5975 40.1548 95.7202C40.483 95.8428 40.7962 96.0102 41.0945 96.2223C41.3961 96.4311 41.6446 96.6996 41.8402 97.0277C42.0357 97.3558 42.1335 97.7585 42.1335 98.2358C42.1335 98.786 41.9893 99.2831 41.701 99.7273C41.416 100.171 40.9983 100.524 40.4482 100.786C39.9013 101.048 39.2367 101.179 38.4545 101.179C37.7254 101.179 37.094 101.061 36.5604 100.826C36.0301 100.591 35.6125 100.263 35.3075 99.8416C35.0059 99.4207 34.8352 98.9318 34.7955 98.375H36.0682C36.1013 98.7595 36.2306 99.0777 36.456 99.3295C36.6847 99.5781 36.973 99.7637 37.321 99.8864C37.6723 100.006 38.0502 100.065 38.4545 100.065C38.9252 100.065 39.3478 99.9891 39.7223 99.8366C40.0968 99.6809 40.3935 99.4654 40.6122 99.1903C40.831 98.9119 40.9403 98.5871 40.9403 98.2159C40.9403 97.8778 40.8459 97.6027 40.657 97.3906C40.468 97.1785 40.2195 97.0062 39.9112 96.8736C39.603 96.741 39.2699 96.625 38.9119 96.5256L37.6591 96.1676C36.8636 95.9389 36.2339 95.6125 35.7699 95.1882C35.3059 94.764 35.0739 94.2088 35.0739 93.5227C35.0739 92.9527 35.228 92.4555 35.5362 92.0312C35.8478 91.6037 36.2654 91.2723 36.7891 91.0369C37.3161 90.7983 37.9044 90.679 38.554 90.679C39.2102 90.679 39.7936 90.7966 40.304 91.032C40.8144 91.264 41.2188 91.5821 41.517 91.9865C41.8187 92.3909 41.9777 92.8499 41.9943 93.3636H40.8011ZM47.2033 101.159C46.4675 101.159 45.8328 100.997 45.2992 100.672C44.7689 100.344 44.3596 99.8864 44.0712 99.2997C43.7862 98.7098 43.6436 98.0237 43.6436 97.2415C43.6436 96.4593 43.7862 95.7699 44.0712 95.1733C44.3596 94.5734 44.7606 94.1061 45.2743 93.7713C45.7914 93.4332 46.3946 93.2642 47.084 93.2642C47.4817 93.2642 47.8745 93.3305 48.2623 93.4631C48.65 93.5956 49.003 93.8111 49.3212 94.1094C49.6394 94.4044 49.8929 94.7955 50.0819 95.2827C50.2708 95.7699 50.3652 96.3698 50.3652 97.0824V97.5795H44.4789V96.5653H49.1721C49.1721 96.1345 49.0859 95.75 48.9135 95.4119C48.7445 95.0739 48.5025 94.8071 48.1877 94.6115C47.8761 94.416 47.5082 94.3182 47.084 94.3182C46.6167 94.3182 46.2123 94.4342 45.8709 94.6662C45.5328 94.8949 45.2727 95.1932 45.0904 95.5611C44.9081 95.929 44.8169 96.3234 44.8169 96.7443V97.4205C44.8169 97.9972 44.9164 98.486 45.1152 98.8871C45.3174 99.2848 45.5975 99.5881 45.9554 99.7969C46.3134 100.002 46.7293 100.105 47.2033 100.105C47.5115 100.105 47.79 100.062 48.0385 99.9759C48.2904 99.8864 48.5075 99.7538 48.6898 99.5781C48.8721 99.3991 49.013 99.1771 49.1124 98.9119L50.2459 99.2301C50.1266 99.6146 49.9261 99.9527 49.6444 100.244C49.3626 100.533 49.0146 100.758 48.6003 100.92C48.186 101.08 47.7203 101.159 47.2033 101.159ZM55.2523 101.159C54.5364 101.159 53.9199 100.99 53.4029 100.652C52.8858 100.314 52.4881 99.8482 52.2097 99.255C51.9313 98.6617 51.7921 97.9839 51.7921 97.2216C51.7921 96.446 51.9346 95.7616 52.2196 95.1683C52.508 94.5717 52.909 94.1061 53.4228 93.7713C53.9398 93.4332 54.543 93.2642 55.2324 93.2642C55.7694 93.2642 56.2533 93.3636 56.6841 93.5625C57.115 93.7614 57.468 94.0398 57.7431 94.3977C58.0182 94.7557 58.1889 95.1733 58.2551 95.6506H57.0819C56.9924 95.3026 56.7935 94.9943 56.4853 94.7259C56.1803 94.4541 55.7694 94.3182 55.2523 94.3182C54.7949 94.3182 54.3939 94.4375 54.0492 94.6761C53.7078 94.9115 53.441 95.2446 53.2488 95.6754C53.0598 96.103 52.9654 96.6051 52.9654 97.1818C52.9654 97.7718 53.0582 98.2855 53.2438 98.723C53.4327 99.1605 53.6979 99.5002 54.0392 99.7422C54.3839 99.9841 54.7883 100.105 55.2523 100.105C55.5572 100.105 55.834 100.052 56.0826 99.946C56.3311 99.84 56.5416 99.6875 56.714 99.4886C56.8863 99.2898 57.0089 99.0511 57.0819 98.7727H58.2551C58.1889 99.2235 58.0248 99.6295 57.763 99.9908C57.5044 100.349 57.1614 100.634 56.7338 100.846C56.3096 101.055 55.8158 101.159 55.2523 101.159ZM63.0726 101.159C62.3832 101.159 61.7784 100.995 61.258 100.667C60.7409 100.339 60.3366 99.8797 60.0449 99.2898C59.7566 98.6998 59.6124 98.0104 59.6124 97.2216C59.6124 96.4261 59.7566 95.7318 60.0449 95.1385C60.3366 94.5452 60.7409 94.0845 61.258 93.7564C61.7784 93.4283 62.3832 93.2642 63.0726 93.2642C63.762 93.2642 64.3652 93.4283 64.8823 93.7564C65.4026 94.0845 65.807 94.5452 66.0953 95.1385C66.387 95.7318 66.5328 96.4261 66.5328 97.2216C66.5328 98.0104 66.387 98.6998 66.0953 99.2898C65.807 99.8797 65.4026 100.339 64.8823 100.667C64.3652 100.995 63.762 101.159 63.0726 101.159ZM63.0726 100.105C63.5963 100.105 64.0272 99.9709 64.3652 99.7024C64.7033 99.4339 64.9535 99.081 65.1159 98.6435C65.2784 98.206 65.3596 97.732 65.3596 97.2216C65.3596 96.7112 65.2784 96.2356 65.1159 95.7947C64.9535 95.3539 64.7033 94.9976 64.3652 94.7259C64.0272 94.4541 63.5963 94.3182 63.0726 94.3182C62.5489 94.3182 62.1181 94.4541 61.78 94.7259C61.4419 94.9976 61.1917 95.3539 61.0293 95.7947C60.8669 96.2356 60.7857 96.7112 60.7857 97.2216C60.7857 97.732 60.8669 98.206 61.0293 98.6435C61.1917 99.081 61.4419 99.4339 61.78 99.7024C62.1181 99.9709 62.5489 100.105 63.0726 100.105ZM69.4972 96.4062V101H68.3239V93.3636H69.4574V94.5568H69.5568C69.7358 94.169 70.0076 93.8575 70.3722 93.6222C70.7367 93.3835 71.2074 93.2642 71.7841 93.2642C72.3011 93.2642 72.7536 93.3703 73.1413 93.5824C73.5291 93.7912 73.8307 94.1094 74.0462 94.5369C74.2616 94.9612 74.3693 95.4981 74.3693 96.1477V101H73.196V96.2273C73.196 95.6274 73.0402 95.16 72.7287 94.8253C72.4171 94.4872 71.9896 94.3182 71.446 94.3182C71.0715 94.3182 70.7367 94.3994 70.4418 94.5618C70.1501 94.7242 69.9197 94.9612 69.7507 95.2727C69.5817 95.5843 69.4972 95.9621 69.4972 96.4062ZM79.3968 101.159C78.7605 101.159 78.1987 100.998 77.7115 100.677C77.2243 100.352 76.8431 99.8946 76.568 99.3047C76.2929 98.7114 76.1554 98.0104 76.1554 97.2017C76.1554 96.3996 76.2929 95.7036 76.568 95.1136C76.8431 94.5237 77.2259 94.0679 77.7164 93.7464C78.207 93.425 78.7737 93.2642 79.4167 93.2642C79.9139 93.2642 80.3066 93.3471 80.595 93.5128C80.8867 93.6752 81.1087 93.8608 81.2612 94.0696C81.417 94.2751 81.5379 94.4441 81.6241 94.5767H81.7235V90.8182H82.8968V101H81.7633V99.8267H81.6241C81.5379 99.9659 81.4153 100.142 81.2562 100.354C81.0971 100.562 80.8701 100.75 80.5751 100.915C80.2801 101.078 79.8874 101.159 79.3968 101.159ZM79.5559 100.105C80.0266 100.105 80.4243 99.9825 80.7491 99.7372C81.0739 99.4886 81.3208 99.1456 81.4899 98.7081C81.6589 98.2673 81.7434 97.7585 81.7434 97.1818C81.7434 96.6117 81.6606 96.1129 81.4949 95.6854C81.3291 95.2545 81.0839 94.9197 80.7591 94.6811C80.4342 94.4392 80.0332 94.3182 79.5559 94.3182C79.0588 94.3182 78.6445 94.4458 78.313 94.701C77.9849 94.9529 77.738 95.2959 77.5723 95.7301C77.4099 96.161 77.3287 96.6449 77.3287 97.1818C77.3287 97.7254 77.4115 98.2192 77.5772 98.6634C77.7463 99.1042 77.9949 99.4555 78.323 99.7173C78.6544 99.9759 79.0654 100.105 79.5559 100.105ZM92.2285 104.023C91.6618 104.023 91.1745 103.95 90.7669 103.804C90.3592 103.661 90.0195 103.473 89.7477 103.237C89.4792 103.005 89.2654 102.757 89.1064 102.491L90.041 101.835C90.1471 101.974 90.2813 102.134 90.4437 102.312C90.6061 102.495 90.8282 102.652 91.1099 102.785C91.3949 102.921 91.7678 102.989 92.2285 102.989C92.845 102.989 93.3538 102.839 93.7548 102.541C94.1558 102.243 94.3564 101.776 94.3564 101.139V99.5881H94.2569C94.1708 99.7273 94.0481 99.8996 93.889 100.105C93.7333 100.307 93.5079 100.488 93.2129 100.647C92.9212 100.803 92.5268 100.881 92.0297 100.881C91.4132 100.881 90.8597 100.735 90.3691 100.443C89.8819 100.152 89.4958 99.7273 89.2108 99.1705C88.929 98.6136 88.7882 97.9375 88.7882 97.142C88.7882 96.3598 88.9257 95.6787 89.2008 95.0987C89.4759 94.5154 89.8587 94.0646 90.3493 93.7464C90.8398 93.425 91.4065 93.2642 92.0495 93.2642C92.5467 93.2642 92.9411 93.3471 93.2328 93.5128C93.5278 93.6752 93.7531 93.8608 93.9089 94.0696C94.068 94.2751 94.1906 94.4441 94.2768 94.5767H94.3961V93.3636H95.5297V101.219C95.5297 101.875 95.3805 102.409 95.0822 102.82C94.7872 103.234 94.3895 103.537 93.889 103.729C93.3919 103.925 92.8384 104.023 92.2285 104.023ZM92.1887 99.8267C92.6594 99.8267 93.0571 99.719 93.3819 99.5036C93.7067 99.2881 93.9537 98.9782 94.1227 98.5739C94.2917 98.1695 94.3762 97.6856 94.3762 97.1222C94.3762 96.572 94.2934 96.0864 94.1277 95.6655C93.9619 95.2446 93.7167 94.9148 93.3919 94.6761C93.0671 94.4375 92.666 94.3182 92.1887 94.3182C91.6916 94.3182 91.2773 94.4441 90.9458 94.696C90.6177 94.9479 90.3708 95.286 90.2051 95.7102C90.0427 96.1345 89.9615 96.6051 89.9615 97.1222C89.9615 97.6525 90.0443 98.1214 90.21 98.5291C90.3791 98.9335 90.6277 99.2517 90.9558 99.4837C91.2872 99.7124 91.6982 99.8267 92.1887 99.8267ZM97.6774 101V93.3636H98.8109V94.517H98.8904C99.0297 94.1392 99.2815 93.8326 99.6461 93.5973C100.011 93.362 100.422 93.2443 100.879 93.2443C100.965 93.2443 101.073 93.246 101.202 93.2493C101.331 93.2526 101.429 93.2576 101.496 93.2642V94.4574C101.456 94.4474 101.365 94.4325 101.222 94.4126C101.083 94.3894 100.935 94.3778 100.78 94.3778C100.408 94.3778 100.077 94.4557 99.7853 94.6115C99.497 94.764 99.2683 94.9761 99.0993 95.2479C98.9335 95.5163 98.8507 95.8229 98.8507 96.1676V101H97.6774ZM105.756 101.159C105.067 101.159 104.462 100.995 103.942 100.667C103.425 100.339 103.02 99.8797 102.729 99.2898C102.44 98.6998 102.296 98.0104 102.296 97.2216C102.296 96.4261 102.44 95.7318 102.729 95.1385C103.02 94.5452 103.425 94.0845 103.942 93.7564C104.462 93.4283 105.067 93.2642 105.756 93.2642C106.446 93.2642 107.049 93.4283 107.566 93.7564C108.086 94.0845 108.491 94.5452 108.779 95.1385C109.071 95.7318 109.216 96.4261 109.216 97.2216C109.216 98.0104 109.071 98.6998 108.779 99.2898C108.491 99.8797 108.086 100.339 107.566 100.667C107.049 100.995 106.446 101.159 105.756 101.159ZM105.756 100.105C106.28 100.105 106.711 99.9709 107.049 99.7024C107.387 99.4339 107.637 99.081 107.8 98.6435C107.962 98.206 108.043 97.732 108.043 97.2216C108.043 96.7112 107.962 96.2356 107.8 95.7947C107.637 95.3539 107.387 94.9976 107.049 94.7259C106.711 94.4541 106.28 94.3182 105.756 94.3182C105.233 94.3182 104.802 94.4541 104.464 94.7259C104.126 94.9976 103.875 95.3539 103.713 95.7947C103.55 96.2356 103.469 96.7112 103.469 97.2216C103.469 97.732 103.55 98.206 103.713 98.6435C103.875 99.081 104.126 99.4339 104.464 99.7024C104.802 99.9709 105.233 100.105 105.756 100.105ZM115.82 97.8778V93.3636H116.993V101H115.82V99.7074H115.74C115.561 100.095 115.283 100.425 114.905 100.697C114.527 100.965 114.05 101.099 113.473 101.099C112.996 101.099 112.572 100.995 112.201 100.786C111.829 100.574 111.538 100.256 111.326 99.8317C111.114 99.4041 111.007 98.8655 111.007 98.2159V93.3636H112.181V98.1364C112.181 98.6932 112.337 99.1373 112.648 99.4688C112.963 99.8002 113.364 99.9659 113.851 99.9659C114.143 99.9659 114.44 99.8913 114.741 99.7422C115.046 99.593 115.301 99.3643 115.507 99.0561C115.716 98.7479 115.82 98.3551 115.82 97.8778ZM119.142 103.864V93.3636H120.276V94.5767H120.415C120.501 94.4441 120.62 94.2751 120.773 94.0696C120.929 93.8608 121.151 93.6752 121.439 93.5128C121.731 93.3471 122.125 93.2642 122.622 93.2642C123.265 93.2642 123.832 93.425 124.323 93.7464C124.813 94.0679 125.196 94.5237 125.471 95.1136C125.746 95.7036 125.884 96.3996 125.884 97.2017C125.884 98.0104 125.746 98.7114 125.471 99.3047C125.196 99.8946 124.815 100.352 124.328 100.677C123.84 100.998 123.279 101.159 122.642 101.159C122.152 101.159 121.759 101.078 121.464 100.915C121.169 100.75 120.942 100.562 120.783 100.354C120.624 100.142 120.501 99.9659 120.415 99.8267H120.316V103.864H119.142ZM120.296 97.1818C120.296 97.7585 120.38 98.2673 120.549 98.7081C120.718 99.1456 120.965 99.4886 121.29 99.7372C121.615 99.9825 122.012 100.105 122.483 100.105C122.974 100.105 123.383 99.9759 123.711 99.7173C124.043 99.4555 124.291 99.1042 124.457 98.6634C124.626 98.2192 124.71 97.7254 124.71 97.1818C124.71 96.6449 124.628 96.161 124.462 95.7301C124.299 95.2959 124.052 94.9529 123.721 94.701C123.393 94.4458 122.98 94.3182 122.483 94.3182C122.006 94.3182 121.605 94.4392 121.28 94.6811C120.955 94.9197 120.71 95.2545 120.544 95.6854C120.378 96.1129 120.296 96.6117 120.296 97.1818Z" fill="#6B7280"/>
<rect width="172" height="16" transform="translate(30 112)" fill="#F3F4F6"/>
<path d="M55.2337 118C55.1399 117.713 55.0163 117.456 54.8629 117.229C54.7124 116.999 54.532 116.803 54.3217 116.641C54.1143 116.479 53.8786 116.355 53.6143 116.27C53.3501 116.185 53.0604 116.142 52.745 116.142C52.228 116.142 51.7578 116.276 51.3345 116.543C50.9112 116.81 50.5746 117.203 50.3246 117.723C50.0746 118.243 49.9496 118.881 49.9496 119.636C49.9496 120.392 50.076 121.03 50.3288 121.55C50.5817 122.07 50.924 122.463 51.3558 122.73C51.7876 122.997 52.2734 123.131 52.8132 123.131C53.3132 123.131 53.7536 123.024 54.1342 122.811C54.5178 122.595 54.8161 122.291 55.0291 121.899C55.245 121.504 55.353 121.04 55.353 120.506L55.6768 120.574H53.0518V119.636H56.3757V120.574C56.3757 121.293 56.2223 121.918 55.9155 122.449C55.6115 122.98 55.1911 123.392 54.6541 123.685C54.12 123.974 53.5064 124.119 52.8132 124.119C52.0405 124.119 51.3615 123.938 50.7763 123.574C50.1939 123.21 49.7393 122.693 49.4126 122.023C49.0888 121.352 48.9268 120.557 48.9268 119.636C48.9268 118.946 49.0192 118.325 49.2038 117.774C49.3913 117.22 49.6555 116.749 49.9964 116.359C50.3374 115.97 50.7408 115.672 51.2067 115.464C51.6726 115.257 52.1854 115.153 52.745 115.153C53.2053 115.153 53.6342 115.223 54.032 115.362C54.4325 115.499 54.7891 115.693 55.1016 115.946C55.4169 116.196 55.6797 116.496 55.8899 116.845C56.1001 117.192 56.245 117.577 56.3246 118H55.2337ZM58.1857 124V115.273H63.4528V116.21H59.2425V119.159H63.18V120.097H59.2425V123.062H63.521V124H58.1857ZM64.8803 116.21V115.273H71.4258V116.21H68.6815V124H67.6246V116.21H64.8803Z" fill="#23C16B"/>
<rect x="76" y="113.5" width="150" height="13" rx="2" fill="#E5E7EB"/>
</g>
<rect x="0.5" y="0.5" width="219" height="139" rx="5.5" stroke="#E5E7EB"/>
<defs>
<clipPath id="clip0_3826_85790">
<rect width="196" height="68" fill="white" transform="translate(6 12)"/>
</clipPath>
<clipPath id="clip1_3826_85790">
<rect width="196" height="44" fill="white" transform="translate(6 84)"/>
</clipPath>
</defs>
</svg>
