<?xml version="1.0" standalone="no"?>
<!DOCTYPE svg PUBLIC "-//W3C//DTD SVG 20010904//EN"
 "http://www.w3.org/TR/2001/REC-SVG-20010904/DTD/svg10.dtd">
<svg version="1.0" xmlns="http://www.w3.org/2000/svg"
 width="750.000000pt" height="1280.000000pt" viewBox="0 0 750.000000 1280.000000"
 preserveAspectRatio="xMidYMid meet">
<metadata>
Created by potrace 1.15, written by Peter Selinger 2001-2017
</metadata>
<g transform="translate(0.000000,1280.000000) scale(0.100000,-0.100000)"
fill="#000000" stroke="none">
<path d="M6985 12783 c-35 -18 -104 -71 -123 -93 -62 -75 -121 -173 -134 -225
-32 -120 -32 -116 -3 -109 25 6 25 5 25 -50 0 -56 0 -56 26 -50 26 7 26 6 23
-40 -4 -42 -2 -46 18 -46 20 0 23 -5 23 -44 0 -41 2 -45 28 -48 25 -3 27 -6
24 -39 -3 -35 -2 -36 36 -43 33 -5 39 -9 35 -25 -4 -17 3 -20 71 -26 132 -13
209 -2 338 44 65 24 115 47 112 53 -3 5 -17 13 -30 18 -13 5 -23 15 -22 22 2
8 -12 15 -37 18 -41 5 -43 7 -33 64 2 15 -8 22 -57 35 l-60 16 -5 69 -5 69
-42 15 c-47 15 -50 24 -34 94 10 43 -6 75 -42 80 -20 3 -22 7 -19 59 l4 57
-41 7 -40 7 -3 63 -3 63 -30 -15z"/>
<path d="M6636 12361 c-3 -4 6 -31 20 -60 13 -29 24 -57 24 -62 0 -19 -71 -81
-86 -75 -22 8 -17 25 21 67 19 22 35 44 35 49 0 21 -18 9 -45 -30 -15 -22 -30
-38 -34 -36 -3 3 -11 -7 -18 -20 -9 -19 -8 -24 3 -24 17 0 18 -31 2 -49 -11
-11 -10 -13 4 -8 23 8 42 -25 25 -42 -9 -10 -9 -11 4 -6 21 8 43 -37 26 -54
-9 -9 -8 -11 4 -6 17 7 44 -19 35 -33 -3 -6 4 -12 15 -15 11 -3 23 -15 26 -27
5 -18 11 -21 37 -17 77 13 147 33 140 40 -4 4 -2 7 4 7 6 0 14 -4 17 -10 3 -5
11 -10 16 -10 6 0 -14 27 -43 60 -60 65 -133 188 -176 292 -25 63 -45 87 -56
69z m79 -181 c21 -23 19 -26 -48 -64 -47 -27 -49 -27 -54 -7 -8 30 -8 30 34
62 46 34 45 34 68 9z m49 -75 c7 -20 -14 -38 -62 -54 -34 -12 -44 -12 -57 -1
-23 19 -15 30 35 50 57 23 76 24 84 5z m45 -70 c-1 -5 -29 -20 -62 -33 -47
-17 -62 -20 -69 -10 -13 22 -9 26 40 42 52 16 94 16 91 1z m36 -71 c-31 -23
-104 -29 -123 -11 -18 19 -15 20 58 35 28 5 52 5 64 -1 19 -9 19 -10 1 -23z"/>
<path d="M6423 12074 c-39 -27 -78 -61 -87 -75 -33 -56 -9 -145 48 -181 58
-36 131 -14 254 77 1 1 -26 45 -60 97 -35 53 -68 103 -73 113 -9 15 -18 12
-82 -31z"/>
<path d="M4859 10397 c-7 -17 -21 -43 -30 -57 -13 -18 -21 -60 -28 -156 -9
-111 -16 -144 -47 -228 -32 -84 -45 -105 -93 -152 -31 -29 -63 -54 -72 -54 -9
0 -36 -9 -60 -19 -24 -11 -78 -27 -119 -37 -54 -12 -82 -24 -102 -45 -16 -15
-36 -30 -46 -32 -9 -3 -30 -8 -47 -12 l-30 -8 30 -13 c17 -7 39 -13 50 -14 11
0 25 -8 32 -18 9 -16 30 -20 125 -25 127 -8 206 -27 233 -57 39 -43 0 -135
-117 -272 -104 -121 -146 -229 -157 -403 -4 -66 -13 -131 -20 -145 -8 -14 -39
-56 -69 -93 -81 -100 -135 -180 -188 -280 -30 -57 -61 -99 -86 -120 -22 -18
-51 -51 -65 -74 -53 -90 -124 -128 -233 -125 -36 1 -129 3 -208 4 l-143 3 -39
50 c-22 28 -40 53 -40 57 0 4 26 26 58 49 98 72 129 107 142 161 7 27 10 60 7
75 -3 14 4 56 14 92 23 80 24 171 3 216 -29 61 -55 76 -146 86 -46 5 -100 16
-121 24 -20 8 -53 15 -72 15 -47 0 -83 15 -115 50 -15 17 -35 30 -44 30 -9 0
-16 7 -16 15 0 12 12 15 56 13 39 -2 58 1 61 10 7 20 -60 42 -128 42 -52 0
-62 3 -66 20 -4 14 -17 21 -52 26 -25 4 -68 16 -96 27 -40 16 -79 21 -198 25
-208 6 -397 -20 -463 -63 -12 -8 -64 -26 -115 -40 -103 -29 -166 -66 -239
-140 -50 -52 -52 -46 34 -97 25 -15 46 -34 46 -42 0 -7 -35 -53 -78 -100 -156
-175 -159 -179 -170 -244 -8 -44 -25 -83 -63 -144 -88 -140 -139 -278 -115
-316 4 -7 18 -12 30 -12 13 0 38 -3 55 -6 40 -8 40 -17 -4 -196 -40 -161 -62
-324 -51 -381 5 -27 14 -40 32 -47 23 -9 24 -12 24 -114 0 -116 4 -122 58
-100 41 17 91 55 199 152 l81 73 6 -63 c26 -301 38 -352 82 -368 29 -11 54 -3
54 16 0 15 167 194 181 194 8 0 55 -138 64 -190 4 -24 0 -46 -14 -73 -10 -20
-15 -40 -10 -42 15 -10 28 -76 39 -200 7 -66 22 -156 34 -200 13 -44 26 -100
30 -125 6 -40 4 -49 -17 -68 l-24 -23 -29 23 c-48 39 -80 58 -304 174 -118 61
-240 124 -270 140 -33 18 -102 74 -175 145 -66 64 -129 119 -140 122 -11 3
-43 11 -72 18 -47 11 -53 15 -60 48 -6 26 -15 37 -33 41 -23 5 -28 26 -142
545 -111 508 -238 1122 -238 1151 0 8 20 15 56 20 60 7 183 62 251 113 54 39
78 86 93 181 10 63 10 89 -3 156 -35 183 -119 334 -276 497 -112 116 -199 176
-301 211 -207 69 -394 52 -504 -45 -89 -78 -122 -173 -113 -329 16 -263 106
-436 316 -602 93 -75 181 -119 300 -151 52 -14 97 -29 101 -34 10 -11 102
-452 205 -983 48 -245 97 -489 110 -542 36 -147 41 -204 20 -212 -14 -5 -16
-14 -11 -41 7 -34 6 -35 -19 -25 -42 16 -74 12 -99 -14 -22 -21 -24 -30 -22
-112 1 -49 8 -99 14 -111 7 -12 12 -49 11 -83 -1 -34 3 -66 10 -73 6 -6 11
-26 11 -45 0 -50 41 -85 131 -113 40 -13 81 -31 89 -40 9 -10 38 -19 75 -23
217 -23 224 -26 335 -144 132 -141 173 -190 217 -259 23 -38 54 -83 68 -102
14 -19 25 -44 25 -56 0 -16 11 -25 50 -39 31 -11 64 -34 88 -59 20 -22 48 -50
60 -61 134 -118 168 -146 216 -175 31 -18 75 -40 98 -48 60 -22 190 -29 228
-13 48 20 113 101 190 234 70 123 70 123 90 257 11 74 24 197 30 274 5 77 12
158 16 180 11 76 35 188 44 204 11 22 56 61 107 95 40 27 45 28 90 17 89 -22
417 -139 503 -179 65 -30 98 -54 143 -100 l57 -61 0 -63 c0 -35 -4 -79 -9 -98
-14 -51 -40 -265 -50 -413 -7 -106 -12 -132 -29 -150 -169 -186 -435 -743
-496 -1039 -9 -43 -20 -177 -26 -305 -13 -300 -35 -420 -107 -584 -24 -56 -25
-56 -73 -62 -60 -7 -135 -45 -177 -89 -75 -79 -131 -260 -140 -453 l-5 -120
26 37 c34 49 91 81 198 111 126 37 172 60 227 115 75 75 86 101 87 212 1 79 7
109 32 180 58 158 63 198 72 565 5 187 13 360 20 385 39 158 130 363 210 470
54 73 171 202 177 196 3 -2 11 -96 19 -208 10 -155 18 -215 33 -255 11 -28 25
-89 31 -136 6 -47 17 -105 26 -129 8 -24 28 -96 45 -161 16 -64 45 -161 65
-215 89 -242 176 -510 177 -545 1 -30 -6 -44 -38 -77 -21 -22 -47 -42 -56 -45
-28 -9 -116 -123 -159 -206 -38 -73 -70 -175 -104 -324 -9 -38 -19 -149 -22
-245 -7 -171 -8 -175 -42 -250 -35 -77 -135 -222 -231 -337 -56 -67 -144 -143
-165 -143 -20 0 -155 -145 -171 -184 -22 -53 -19 -83 21 -171 69 -156 113
-297 118 -381 3 -43 8 -120 12 -171 5 -72 3 -102 -10 -140 -9 -26 -21 -93 -26
-149 -5 -55 -10 -105 -11 -110 -6 -33 6 -61 41 -96 37 -38 40 -45 40 -97 l0
-56 20 25 c11 14 28 42 37 63 9 20 22 37 29 37 7 0 24 14 39 31 14 17 27 30
29 28 2 -2 11 -28 21 -57 18 -57 55 -107 85 -117 16 -5 20 -17 22 -73 l3 -67
28 46 c15 25 27 51 27 58 0 6 24 35 53 64 40 39 56 64 67 102 7 28 15 52 16
54 2 2 17 -8 34 -23 17 -14 40 -26 51 -26 15 0 23 -13 36 -62 l17 -61 18 39
c10 21 18 52 18 68 0 17 10 40 23 54 18 19 22 35 22 88 0 35 3 64 8 64 4 0 7
-3 7 -7 0 -5 9 -19 20 -33 l21 -25 -2 65 c-1 36 4 84 10 108 14 49 9 70 -43
191 -21 48 -45 129 -57 190 -27 142 -35 174 -66 255 l-27 68 17 67 c27 100 72
189 130 252 63 67 199 225 245 283 40 50 152 226 152 239 0 12 82 127 107 150
20 17 71 114 117 219 13 32 38 77 54 100 95 139 168 281 216 422 26 75 33 129
56 422 18 226 15 221 152 338 65 56 150 131 190 167 40 37 155 123 255 192
100 69 253 181 338 249 152 120 203 156 262 189 16 9 42 40 61 76 57 108 117
386 110 512 -3 59 -8 73 -41 118 -20 28 -37 53 -37 57 0 14 -92 126 -100 121
-10 -6 -188 184 -240 255 -19 27 -45 51 -56 54 -29 8 -171 141 -190 178 -9 18
-21 28 -29 24 -7 -2 -38 10 -68 28 -30 18 -70 39 -88 45 -42 14 -79 49 -79 73
0 15 -5 17 -25 12 -20 -5 -24 -3 -19 10 4 11 0 16 -14 16 -10 0 -31 9 -45 20
-14 11 -31 20 -39 20 -8 0 -41 23 -73 50 -33 28 -76 55 -96 60 -48 13 -112 83
-132 146 -9 27 -26 96 -37 153 -13 61 -39 146 -65 207 -50 117 -81 218 -124
409 -34 146 -83 303 -107 339 -14 23 -13 30 22 113 20 48 58 154 85 235 44
132 49 156 49 236 0 85 2 93 33 139 21 31 39 75 47 114 7 35 22 82 33 104 11
22 22 47 23 55 9 49 55 194 66 207 9 11 13 53 13 137 0 66 4 135 9 153 7 27 6
31 -10 30 -17 -2 -19 6 -19 80 1 51 5 87 13 95 7 7 12 36 12 64 l0 53 97 -46
c53 -24 113 -47 132 -51 20 -3 51 -14 69 -25 l34 -20 -8 24 c-5 13 -8 40 -7
59 2 31 -9 50 -72 130 -41 52 -75 101 -75 107 0 10 34 13 135 13 l134 0 23 30
c19 27 27 30 75 30 29 0 53 3 53 8 0 7 -73 42 -89 42 -5 0 -11 5 -13 11 -2 7
-60 14 -159 18 -85 4 -161 11 -168 15 -9 6 -12 23 -9 57 4 39 18 67 75 151 67
100 95 171 77 199 -3 6 9 27 27 46 l34 36 -49 -7 c-27 -3 -58 -6 -68 -6 -11 0
-67 -46 -131 -109 -113 -109 -136 -126 -189 -141 -46 -14 -57 15 -67 176 -9
151 -30 220 -77 251 -14 9 -24 25 -24 39 0 36 -16 37 -31 1z m-4454 -747 c4
-6 -6 -10 -22 -9 -25 0 -26 1 -8 9 11 5 21 9 22 9 1 1 5 -3 8 -9z m75 -11 c0
-5 -11 -9 -25 -9 -14 0 -25 6 -25 14 0 9 8 12 25 8 14 -2 25 -8 25 -13z m69
-5 c9 -9 -5 -12 -31 -7 -16 3 -28 10 -28 15 0 9 49 3 59 -8z m-203 -7 c1 -1 4
-15 8 -31 7 -27 6 -28 -21 -21 -33 8 -29 3 -37 39 -7 27 -6 28 21 21 15 -3 28
-7 29 -8z m-66 -21 c0 -19 -4 -22 -25 -18 -39 7 -30 39 13 41 6 1 12 -10 12
-23z m141 -8 c6 -25 5 -28 -17 -28 -17 0 -27 8 -34 26 -14 35 -13 36 17 32 19
-2 29 -10 34 -30z m189 22 c11 -8 7 -9 -15 -4 -37 8 -45 14 -19 14 10 0 26 -5
34 -10z m-136 -6 c9 -3 16 -17 16 -31 0 -36 -41 -28 -51 10 -8 28 2 34 35 21z
m80 -20 c12 -31 6 -44 -19 -44 -14 0 -25 3 -25 8 0 4 -3 17 -6 30 -5 18 -2 22
19 22 14 0 28 -7 31 -16z m76 -25 c0 -27 -3 -30 -22 -23 -28 8 -24 4 -32 32
-7 19 -4 22 23 22 28 0 31 -3 31 -31z m61 12 c4 -3 10 -16 14 -29 6 -21 4 -22
-22 -16 -34 8 -29 3 -37 37 -6 26 -5 28 16 22 13 -4 26 -10 29 -14z m-483 -7
c33 -9 31 -54 -3 -54 -14 0 -25 3 -25 8 0 4 -3 17 -6 30 -7 23 -2 25 34 16z
m86 -20 c12 -31 6 -44 -19 -44 -14 0 -25 3 -25 8 0 4 -3 17 -6 30 -5 18 -2 22
19 22 14 0 28 -7 31 -16z m457 -4 l24 -19 -26 -1 c-18 0 -28 6 -32 20 -7 25 4
25 34 0z m-591 -5 c0 -8 -7 -15 -16 -15 -14 0 -14 3 -4 15 7 8 14 15 16 15 2
0 4 -7 4 -15z m209 -15 c9 -28 8 -30 -14 -30 -23 0 -45 24 -45 49 0 6 11 11
24 11 18 0 27 -8 35 -30z m69 -14 c3 -25 1 -27 -20 -21 -29 9 -25 5 -33 37 -7
25 -5 26 22 19 21 -5 29 -14 31 -35z m70 -4 c3 -18 -2 -22 -21 -22 -24 0 -37
16 -37 45 0 24 55 2 58 -23z m64 4 c4 -6 8 -18 8 -28 0 -12 -6 -15 -22 -10
-27 6 -38 20 -38 45 0 14 5 17 23 11 12 -4 25 -12 29 -18z m68 -5 c16 -30 12
-41 -14 -41 -23 0 -36 16 -36 46 0 21 38 17 50 -5z m-470 -10 c0 -3 3 -16 6
-28 5 -20 3 -21 -22 -14 -21 5 -30 14 -32 33 -3 22 0 25 22 21 15 -3 26 -8 26
-12z m549 -11 c10 -29 9 -30 -20 -30 -16 0 -29 3 -29 8 0 4 -3 17 -6 30 -5 18
-2 22 19 22 19 0 28 -7 36 -30z m-482 6 c1 0 4 -13 8 -27 6 -24 4 -25 -24 -21
-27 4 -31 8 -31 34 0 26 3 29 23 22 12 -3 23 -7 24 -8z m547 -2 c11 -29 6 -44
-14 -44 -18 0 -40 26 -40 49 0 17 47 13 54 -5z m76 -34 c0 -22 -12 -25 -41
-10 -11 6 -19 21 -19 36 0 24 1 24 30 9 18 -9 30 -23 30 -35z m-573 34 c12 -3
23 -16 26 -30 6 -36 -40 -34 -53 2 -15 38 -14 39 27 28z m79 -12 c6 -4 14 -17
18 -29 7 -20 4 -23 -22 -23 -25 0 -30 4 -34 30 -5 30 12 40 38 22z m-256 -12
c0 -5 -5 -10 -11 -10 -5 0 -7 5 -4 10 3 6 8 10 11 10 2 0 4 -4 4 -10z m340 3
c0 -5 3 -18 6 -30 5 -19 2 -23 -19 -23 -24 0 -37 16 -37 46 0 14 50 21 50 7z
m70 -17 c0 -8 3 -21 6 -30 5 -12 0 -16 -20 -16 -14 0 -26 3 -26 8 0 4 -3 17
-6 30 -5 19 -2 22 20 22 16 0 26 -6 26 -14z m66 0 c1 -1 4 -13 7 -27 6 -24 4
-25 -23 -21 -17 2 -30 10 -30 17 0 7 -3 21 -6 30 -5 13 -2 15 22 9 16 -4 29
-7 30 -8z m59 -6 c7 0 15 -11 17 -25 5 -22 2 -25 -23 -25 -18 0 -29 5 -29 14
0 8 -3 22 -7 32 -5 14 -3 16 11 11 10 -4 23 -7 31 -7z m-531 -16 c11 -29 6
-44 -13 -44 -26 0 -34 15 -21 40 13 24 26 26 34 4z m602 8 c6 -4 13 -17 17
-30 5 -20 2 -23 -21 -20 -21 2 -28 9 -30 31 -3 27 11 35 34 19z m-526 -33 c0
-27 -3 -30 -22 -23 -28 8 -24 4 -32 32 -7 19 -4 22 23 22 28 0 31 -3 31 -31z
m55 21 c7 0 15 -14 17 -31 4 -28 3 -30 -21 -24 -31 8 -27 3 -35 39 -6 24 -4
27 9 22 9 -3 23 -6 30 -6z m555 -4 c0 -8 3 -22 6 -31 6 -13 1 -16 -21 -13 -21
2 -31 10 -36 31 -7 25 -5 27 22 27 18 0 29 -5 29 -14z m-473 -26 c12 -23 11
-25 -13 -28 -31 -4 -31 -4 -39 31 -7 26 -5 28 16 25 13 -1 29 -14 36 -28z
m546 3 c6 -34 4 -37 -26 -29 -16 4 -26 15 -29 31 -5 22 -2 25 22 25 22 0 29
-5 33 -27z m-499 7 c35 -13 36 -50 1 -50 -14 0 -25 3 -25 8 0 4 -3 17 -6 30
-7 25 -5 26 30 12z m565 -16 c14 -32 13 -34 -21 -27 -35 7 -47 53 -13 53 14 0
26 -9 34 -26z m-471 -16 c3 -23 -1 -28 -18 -28 -13 0 -24 9 -30 26 -14 35 -13
36 18 32 21 -2 28 -9 30 -30z m73 -10 c6 -25 5 -28 -17 -28 -17 0 -27 8 -34
26 -14 35 -13 36 17 32 19 -2 29 -10 34 -30z m67 -10 c4 -32 -17 -38 -42 -12
-26 25 -20 46 12 42 21 -2 28 -9 30 -30z m64 8 c4 -6 8 -18 8 -28 0 -12 -6
-15 -22 -10 -27 6 -38 20 -38 45 0 14 5 17 23 11 12 -4 25 -12 29 -18z m-556
6 c6 -4 15 -17 19 -30 6 -21 4 -23 -21 -20 -20 2 -30 10 -35 31 -6 21 -4 27 9
27 10 0 22 -4 28 -8z m611 2 c12 -3 23 -16 26 -30 4 -21 0 -24 -24 -24 -16 0
-29 3 -29 8 0 4 -3 17 -6 30 -7 23 -2 25 33 16z m-523 -30 c9 -33 5 -37 -28
-28 -19 4 -26 13 -26 30 0 36 45 34 54 -2z m71 -11 c7 -31 3 -37 -25 -28 -20
6 -42 43 -34 56 9 16 53 -5 59 -28z m539 21 c12 -31 6 -44 -19 -44 -14 0 -25
3 -25 8 0 4 -3 17 -6 30 -5 18 -2 22 19 22 14 0 28 -7 31 -16z m-468 -31 c8
-31 3 -36 -30 -24 -18 7 -26 18 -26 34 0 20 4 23 25 19 16 -3 27 -13 31 -29z
m532 25 c19 -19 15 -48 -8 -48 -18 0 -40 26 -40 49 0 15 33 14 48 -1z m-472
-12 c1 0 5 -11 8 -23 6 -20 4 -23 -17 -23 -24 0 -37 16 -37 46 0 11 6 13 23 8
12 -3 23 -7 23 -8z m555 -18 c7 -26 5 -28 -22 -28 -16 0 -29 3 -29 8 0 4 -3
17 -7 30 -5 21 -3 23 22 20 21 -2 31 -10 36 -30z m59 -30 c0 -3 -9 -4 -20 -1
-11 3 -20 8 -20 12 0 3 -3 17 -6 31 -5 25 -5 24 20 -5 14 -16 26 -33 26 -37z
m-542 40 c21 -21 14 -48 -12 -48 -23 0 -36 16 -36 46 0 17 31 19 48 2z m72
-17 c16 -30 12 -41 -14 -41 -23 0 -36 16 -36 46 0 21 38 17 50 -5z m70 -5 c0
-8 3 -22 6 -31 6 -13 1 -16 -22 -13 -23 2 -30 9 -32 31 -3 23 0 27 22 27 16 0
26 -6 26 -14z m-540 -10 c0 -8 3 -21 6 -30 4 -11 1 -16 -10 -16 -11 0 -16 9
-16 30 0 17 5 30 10 30 6 0 10 -6 10 -14z m66 0 c1 -1 4 -14 8 -30 7 -27 6
-28 -21 -21 -33 8 -29 3 -37 38 -6 26 -5 27 21 21 16 -4 28 -7 29 -8z m544 7
c0 -5 3 -18 6 -30 5 -19 2 -23 -19 -23 -24 0 -37 16 -37 46 0 14 50 21 50 7z
m67 -7 c1 0 4 -13 8 -28 7 -25 5 -26 -22 -19 -21 5 -29 14 -31 35 -3 25 -1 27
20 21 13 -4 24 -8 25 -9z m-550 -4 c6 -4 14 -19 18 -33 6 -24 4 -25 -23 -21
-24 3 -31 10 -34 33 -5 30 12 38 39 21z m619 -6 c1 0 5 -11 9 -24 6 -21 4 -23
-22 -20 -22 2 -29 9 -31 31 -3 26 -1 28 20 22 13 -4 24 -8 24 -9z m-550 -4 c6
-4 13 -17 17 -30 5 -20 2 -23 -21 -20 -31 4 -54 58 -24 58 10 0 22 -4 28 -8z
m624 -18 c14 -35 13 -36 -17 -32 -19 2 -29 10 -34 31 -6 24 -5 27 17 27 17 0
27 -8 34 -26z m-540 -10 c14 -35 13 -36 -17 -32 -19 2 -29 10 -34 31 -6 24 -5
27 17 27 17 0 27 -8 34 -26z m610 0 c14 -35 13 -36 -17 -32 -19 2 -29 10 -34
31 -6 24 -5 27 17 27 17 0 27 -8 34 -26z m-540 2 c0 -8 3 -22 6 -31 6 -13 1
-16 -21 -13 -21 2 -31 10 -36 31 -7 25 -5 27 22 27 18 0 29 -5 29 -14z m614
-12 c9 -34 2 -40 -29 -26 -33 15 -34 52 -1 52 17 0 26 -7 30 -26z m-544 7 c0
-5 3 -17 6 -26 6 -13 1 -16 -22 -13 -21 2 -30 9 -32 26 -3 18 1 22 22 22 14 0
26 -4 26 -9z m47 3 c12 -3 24 -17 28 -31 8 -32 4 -36 -28 -28 -18 5 -26 15
-29 36 -5 31 -4 32 29 23z m70 -10 c12 -3 23 -16 26 -30 4 -21 0 -24 -24 -24
-18 0 -29 5 -29 14 0 8 -3 21 -6 30 -7 17 -1 19 33 10z m-521 -29 c12 -48 -16
-45 -31 3 -5 16 -2 22 9 22 9 0 18 -11 22 -25z m600 17 c6 -4 13 -17 16 -29 5
-20 2 -23 -23 -23 -18 0 -29 5 -29 14 0 8 -3 21 -6 30 -7 17 21 22 42 8z
m-532 -18 c10 -26 7 -44 -8 -44 -19 0 -46 27 -46 46 0 19 46 18 54 -2z m50 6
c35 -13 36 -50 1 -50 -14 0 -25 3 -25 8 0 4 -3 17 -6 30 -7 25 -5 26 30 12z
m566 -16 c14 -35 13 -36 -17 -32 -19 2 -29 10 -34 31 -6 24 -5 27 17 27 17 0
27 -8 34 -26z m-484 6 c9 0 14 -11 14 -29 0 -25 -3 -28 -25 -23 -14 2 -25 7
-25 11 0 3 -3 17 -7 30 -5 20 -3 23 11 18 10 -4 24 -7 32 -7z m557 -17 c6 -34
4 -37 -26 -29 -16 4 -26 15 -29 31 -5 22 -2 25 22 25 22 0 29 -5 33 -27z m63
13 c1 -1 4 -14 8 -30 7 -27 6 -28 -21 -21 -33 8 -29 3 -37 38 -6 26 -5 27 21
21 16 -4 28 -7 29 -8z m-552 -12 c24 -23 20 -44 -9 -44 -14 0 -25 3 -25 8 0 4
-3 17 -6 30 -8 27 16 31 40 6z m74 -6 c17 -17 15 -48 -2 -48 -19 0 -46 27 -46
46 0 17 31 19 48 2z m83 -31 c6 -24 4 -27 -17 -27 -17 0 -27 8 -34 26 -15 38
-13 43 17 35 18 -5 29 -16 34 -34z m469 14 c0 -25 -3 -28 -25 -23 -14 2 -25 8
-25 12 0 5 -3 15 -6 24 -5 13 1 16 25 16 27 0 31 -3 31 -29z m70 3 c13 -34 13
-34 -15 -34 -18 0 -28 7 -35 26 -13 34 -13 34 15 34 18 0 28 -7 35 -26z m-472
-25 c3 -23 0 -26 -22 -22 -15 3 -26 9 -26 13 0 5 -3 16 -6 25 -6 13 -1 16 22
13 23 -2 30 -9 32 -29z m64 7 c4 -6 8 -19 8 -29 0 -14 -5 -17 -22 -11 -27 8
-38 22 -38 47 0 14 5 17 23 11 12 -4 25 -12 29 -18z m447 -19 c1 -5 -3 -5 -9
-2 -5 3 -10 16 -9 28 0 21 1 21 9 2 5 -11 9 -24 9 -28z m-989 7 c13 -33 13
-34 -4 -34 -14 0 -26 21 -26 46 0 23 20 16 30 -12z m618 -12 c3 -18 -2 -22
-21 -22 -24 0 -37 16 -37 45 0 24 55 2 58 -23z m-544 2 c9 -34 2 -40 -29 -26
-33 15 -34 52 -1 52 17 0 26 -7 30 -26z m606 7 c5 -11 10 -24 10 -30 0 -12
-50 -15 -50 -3 0 4 -3 17 -6 30 -5 18 -2 22 14 22 12 0 26 -9 32 -19z m-534
-16 c8 -33 3 -38 -30 -26 -35 14 -36 51 -1 51 18 0 26 -7 31 -25z m66 1 c4 -6
8 -18 8 -28 0 -12 -6 -15 -22 -10 -26 6 -38 20 -38 44 0 12 6 15 23 10 12 -3
25 -10 29 -16z m542 8 c12 -31 6 -44 -19 -44 -14 0 -25 3 -25 8 0 4 -3 17 -6
30 -5 18 -2 22 19 22 14 0 28 -7 31 -16z m-472 -18 c16 -24 8 -37 -19 -34 -22
2 -29 9 -31 31 -3 26 -1 28 20 22 13 -4 26 -13 30 -19z m538 17 c0 -5 3 -18 6
-30 5 -17 2 -23 -9 -23 -20 0 -47 27 -47 46 0 14 50 21 50 7z m78 -35 c3 -23
0 -26 -20 -21 -26 7 -38 20 -38 45 0 30 54 7 58 -24z m-548 25 c0 -5 3 -18 7
-31 5 -21 3 -23 -23 -20 -23 2 -30 9 -32 31 -3 23 0 27 22 27 14 0 26 -3 26
-7z m601 -3 c10 -6 19 -21 19 -34 0 -19 -4 -22 -25 -18 -14 2 -25 7 -25 11 0
3 -3 16 -6 29 -7 24 5 28 37 12z m-531 -7 c0 -5 3 -18 6 -30 5 -19 2 -23 -19
-23 -24 0 -37 16 -37 46 0 14 50 21 50 7z m589 -23 c8 -24 7 -30 -5 -30 -7 0
-14 3 -14 8 0 4 -3 17 -6 30 -9 33 12 27 25 -8z m-519 13 c0 -5 3 -18 6 -30 5
-20 2 -23 -20 -23 -14 0 -26 3 -26 8 0 4 -3 17 -6 30 -5 19 -2 22 20 22 14 0
26 -3 26 -7z m73 -31 c7 -34 5 -35 -27 -23 -18 7 -26 18 -26 34 0 36 46 25 53
-11z m-540 -8 c6 -32 -11 -31 -23 2 -13 33 -13 34 4 28 8 -3 16 -16 19 -30z
m607 17 c0 -3 3 -15 6 -27 5 -18 2 -20 -25 -16 -26 4 -31 9 -31 32 0 24 3 27
25 22 14 -2 25 -7 25 -11z m-539 -23 c7 -26 5 -28 -22 -28 -18 0 -29 5 -29 14
0 8 -3 22 -6 31 -6 13 -1 16 21 13 21 -2 31 -10 36 -30z m609 13 c17 -32 12
-43 -17 -39 -22 2 -29 9 -31 31 -3 22 1 27 17 27 11 0 25 -9 31 -19z m-539
-17 c5 -15 8 -29 5 -31 -6 -7 -56 8 -56 17 0 5 -3 15 -6 24 -5 12 0 16 20 16
19 0 29 -7 37 -26z m609 7 c16 -32 12 -43 -17 -39 -19 2 -29 10 -34 31 -6 24
-5 27 17 27 13 0 28 -9 34 -19z m-537 -18 c6 -34 8 -32 -25 -26 -18 3 -28 13
-31 29 -4 21 0 24 23 24 22 0 29 -5 33 -27z m63 13 c1 -1 4 -13 8 -29 6 -26 5
-27 -21 -21 -34 8 -29 3 -37 37 -6 26 -5 27 21 21 16 -4 28 -7 29 -8z m545
-12 c12 -33 8 -37 -25 -28 -19 4 -26 13 -26 30 0 34 37 33 51 -2z m-468 -22
c6 -33 8 -31 -25 -25 -17 3 -28 13 -31 29 -5 29 -2 32 27 27 16 -3 26 -14 29
-31z m541 12 c9 -33 4 -38 -27 -30 -16 4 -26 15 -29 31 -5 22 -2 25 22 25 22
0 29 -6 34 -26z m-474 -10 c13 -34 13 -34 -15 -34 -18 0 -28 7 -35 26 -13 34
-13 34 15 34 18 0 28 -7 35 -26z m544 10 c13 -33 7 -43 -21 -35 -38 10 -46 51
-10 51 14 0 28 -7 31 -16z m38 -14 c5 -32 -6 -41 -16 -14 -9 23 -7 44 3 44 5
0 11 -13 13 -30z m-511 -13 c7 -26 6 -28 -19 -25 -19 2 -28 11 -33 31 -7 26
-6 28 19 25 19 -2 28 -11 33 -31z m67 -11 c3 -25 1 -27 -20 -21 -26 9 -38 23
-38 47 0 13 6 15 28 9 20 -5 28 -15 30 -35z m73 -10 c7 -26 6 -27 -19 -21 -33
8 -29 4 -37 37 -6 25 -5 26 21 19 19 -5 30 -16 35 -35z m-543 -8 c3 -22 0 -25
-22 -21 -15 3 -26 8 -26 12 0 3 -3 16 -6 28 -5 20 -3 21 22 14 21 -5 30 -14
32 -33z m612 6 c0 -35 -46 -34 -52 1 -6 31 -4 33 27 27 18 -3 25 -11 25 -28z
m-539 -6 c7 -26 5 -28 -22 -28 -16 0 -29 3 -29 8 0 4 -3 17 -7 30 -5 21 -3 23
22 20 21 -2 31 -10 36 -30z m610 0 c6 -25 5 -28 -17 -28 -17 0 -27 8 -34 26
-14 35 -13 36 17 32 19 -2 29 -10 34 -30z m-557 16 c9 -3 16 -17 16 -30 0 -19
-5 -24 -25 -24 -15 0 -25 6 -25 14 0 8 -3 21 -6 30 -6 17 11 21 40 10z m624
-26 c3 -24 0 -28 -22 -28 -16 0 -26 6 -26 14 0 8 -3 22 -6 31 -6 13 -1 16 22
13 23 -2 30 -9 32 -30z m-544 6 c12 -31 6 -44 -19 -44 -14 0 -25 3 -25 8 0 4
-3 17 -6 30 -5 18 -2 22 19 22 14 0 28 -7 31 -16z m617 -16 c7 -26 5 -28 -22
-28 -18 0 -29 5 -29 14 0 8 -3 22 -6 31 -6 13 -1 16 21 13 21 -2 31 -10 36
-30z m-543 -10 c5 -44 -38 -35 -53 10 -6 21 -4 23 22 20 22 -2 29 -9 31 -30z
m72 -10 c0 -26 -3 -29 -22 -22 -29 8 -25 5 -33 35 -6 24 -4 25 24 21 27 -4 31
-8 31 -34z m540 11 c0 -24 -3 -30 -16 -25 -9 3 -19 6 -24 6 -4 0 -10 11 -12
25 -5 22 -2 25 23 25 26 0 29 -4 29 -31z m30 -1 c0 -36 -4 -35 -14 5 -4 16 -2
27 4 27 5 0 10 -14 10 -32z m-527 13 c13 -5 27 -19 30 -30 4 -18 1 -21 -24
-21 -18 0 -29 5 -29 14 0 8 -3 21 -6 30 -7 19 -4 19 29 7z m81 -17 c24 -23 20
-44 -8 -44 -23 0 -36 16 -36 46 0 19 25 18 44 -2z m76 -1 c0 -5 3 -18 6 -30 5
-19 2 -23 -19 -23 -24 0 -37 16 -37 46 0 14 50 21 50 7z m-540 -17 c0 -8 3
-21 6 -30 10 -27 -13 -18 -36 14 l-21 30 25 0 c16 0 26 -6 26 -14z m70 -5 c0
-3 3 -16 6 -28 5 -20 3 -21 -22 -14 -21 5 -30 14 -32 33 -3 22 0 25 22 21 15
-3 26 -8 26 -12z m551 -13 c6 -25 5 -28 -17 -28 -17 0 -27 8 -34 26 -14 35
-13 36 17 32 19 -2 29 -10 34 -30z m61 8 c15 -22 8 -46 -12 -46 -18 0 -40 33
-40 60 0 11 43 0 52 -14z m-548 -2 c26 -25 20 -46 -11 -42 -19 2 -29 10 -34
31 -6 22 -4 27 11 27 10 0 26 -7 34 -16z m72 -8 c1 0 5 -11 9 -24 6 -21 4 -23
-22 -20 -22 2 -29 9 -31 31 -3 26 -1 28 20 22 13 -4 24 -8 24 -9z m552 -17 c3
-23 0 -26 -22 -22 -15 3 -26 9 -26 13 0 5 -3 16 -6 25 -6 13 -1 16 22 13 23
-2 30 -9 32 -29z m46 21 c19 -7 26 -17 26 -35 0 -23 -3 -25 -22 -19 -26 8 -38
22 -38 47 0 20 1 20 34 7z m-524 -26 c13 -34 13 -34 -14 -34 -18 0 -27 8 -35
30 -9 28 -8 30 15 30 17 0 27 -8 34 -26z m608 14 c21 -21 14 -48 -12 -48 -23
0 -36 16 -36 46 0 17 31 19 48 2z m-532 -23 c8 -32 6 -34 -28 -28 -21 4 -28
11 -28 29 0 35 47 34 56 -1z m64 8 c0 -5 3 -18 6 -30 5 -19 2 -23 -14 -23 -20
0 -42 26 -42 49 0 12 50 15 50 4z m66 -7 c1 0 5 -11 9 -24 6 -21 4 -23 -22
-20 -22 2 -29 9 -31 31 -3 26 -1 28 20 22 13 -4 24 -8 24 -9z m70 -9 c1 -1 4
-15 8 -30 6 -26 5 -28 -16 -22 -29 9 -34 14 -43 44 -7 22 -5 23 21 17 16 -4
29 -8 30 -9z m-466 -28 c0 -31 -2 -34 -24 -31 -26 5 -23 2 -31 33 -6 24 -4 25
24 21 22 -3 31 -10 31 -23z m540 5 c14 -35 13 -36 -17 -32 -19 2 -29 10 -34
31 -6 24 -5 27 17 27 17 0 27 -8 34 -26z m-484 6 c9 0 14 -11 14 -29 0 -25 -3
-28 -25 -23 -14 2 -25 10 -25 17 0 8 -3 21 -7 31 -5 14 -3 16 11 11 10 -4 24
-7 32 -7z m554 -4 c0 -8 3 -22 6 -31 6 -13 1 -16 -21 -13 -21 2 -31 10 -36 31
-7 25 -5 27 22 27 18 0 29 -5 29 -14z m-493 -2 c12 -3 23 -16 26 -30 4 -21 0
-24 -24 -24 -18 0 -29 5 -29 14 0 8 -3 21 -6 30 -7 17 -1 19 33 10z m563 -8
c0 -8 3 -21 6 -30 5 -12 0 -16 -19 -16 -24 0 -37 16 -37 46 0 8 10 14 25 14
15 0 25 -6 25 -14z m-469 -28 c7 -26 5 -28 -22 -28 -16 0 -29 3 -29 8 0 4 -3
17 -7 30 -5 21 -3 23 22 20 21 -2 31 -10 36 -30z m542 5 c6 -34 8 -32 -25 -26
-18 3 -28 13 -31 29 -4 21 0 24 23 24 22 0 29 -5 33 -27z m49 -9 c-5 -27 -17
-31 -26 -8 -11 29 -7 42 12 37 14 -3 18 -11 14 -29z m-521 0 c12 -33 7 -38
-24 -30 -16 4 -26 15 -29 31 -4 21 -1 25 19 25 16 0 27 -8 34 -26z m71 -14 c3
-23 1 -30 -11 -30 -23 0 -37 12 -43 38 -5 19 -2 22 22 22 23 0 28 -5 32 -30z
m60 6 c4 -6 8 -19 8 -29 0 -14 -5 -17 -22 -11 -29 8 -25 4 -34 38 -6 26 -5 28
17 21 13 -4 27 -13 31 -19z m52 4 c35 -13 36 -50 1 -50 -14 0 -25 3 -25 8 0 4
-3 17 -6 30 -7 25 -5 26 30 12z m97 -32 c7 -26 5 -28 -22 -28 -16 0 -29 3 -29
8 0 4 -3 17 -7 30 -5 21 -3 23 22 20 21 -2 31 -10 36 -30z m-551 12 c0 -5 -2
-10 -4 -10 -3 0 -8 5 -11 10 -3 6 -1 10 4 10 6 0 11 -4 11 -10z m76 -27 c4
-13 5 -26 2 -28 -9 -10 -53 22 -56 41 -5 32 46 20 54 -13z m542 5 c3 -23 -1
-28 -17 -28 -19 0 -41 26 -41 50 0 6 12 10 28 8 21 -2 28 -9 30 -30z m-476 -2
c13 -19 9 -46 -6 -46 -20 0 -46 28 -46 50 0 14 5 17 23 12 12 -3 25 -10 29
-16z m542 8 c11 -29 6 -44 -14 -44 -17 0 -40 32 -40 56 0 12 49 2 54 -12z
m-480 -10 c9 -8 16 -24 16 -34 0 -14 -5 -17 -22 -12 -26 6 -38 20 -38 45 0 21
23 22 44 1z m551 -13 c0 -30 -17 -37 -39 -16 -26 26 -20 47 12 43 21 -2 27 -8
27 -27z m-477 7 c21 -21 14 -48 -12 -48 -23 0 -36 16 -36 46 0 17 31 19 48 2z
m72 -5 c0 -5 3 -18 6 -30 5 -19 2 -23 -14 -23 -20 0 -42 26 -42 49 0 12 50 15
50 4z m73 -30 c3 -16 3 -30 1 -32 -9 -10 -52 19 -57 38 -4 18 -1 21 23 21 22
0 29 -5 33 -27z m72 -10 c7 -31 6 -32 -27 -26 -23 4 -28 11 -28 33 0 23 3 27
24 23 16 -3 27 -14 31 -30z m67 3 c14 -21 8 -36 -16 -36 -23 0 -36 16 -36 46
0 17 40 10 52 -10z m54 6 c6 -4 14 -17 18 -29 6 -20 4 -23 -17 -23 -24 0 -37
16 -37 46 0 15 18 18 36 6z m85 -23 c9 -17 8 -23 -2 -30 -23 -15 -42 -6 -50
24 -6 24 -5 27 17 27 14 0 28 -9 35 -21z m-540 -16 c11 -30 1 -29 -36 2 l-30
25 29 -2 c19 -2 32 -10 37 -25z m569 17 c0 -5 -2 -10 -4 -10 -3 0 -8 5 -11 10
-3 6 -1 10 4 10 6 0 11 -4 11 -10z m-500 -14 c0 -8 3 -22 6 -31 6 -13 1 -16
-21 -13 -21 2 -31 10 -36 31 -7 25 -5 27 22 27 18 0 29 -5 29 -14z m70 -5 c0
-3 3 -17 7 -30 5 -21 4 -23 -18 -16 -27 9 -39 22 -39 46 0 12 7 15 25 11 14
-2 25 -7 25 -11z m72 -15 c4 -6 8 -18 8 -28 0 -12 -6 -15 -22 -10 -26 6 -38
20 -38 44 0 12 6 15 23 10 12 -3 25 -10 29 -16z m61 7 c2 -5 7 -20 10 -34 6
-24 4 -26 -19 -21 -21 4 -44 34 -44 58 0 7 49 4 53 -3z m78 -36 c7 -26 6 -28
-19 -25 -19 2 -28 11 -33 31 -7 26 -6 28 19 25 19 -2 28 -11 33 -31z m72 -3
c3 -16 0 -28 -9 -31 -23 -9 -41 4 -46 31 -5 23 -2 26 22 26 22 0 29 -6 33 -26z
m67 5 c0 -9 -40 -33 -45 -27 -1 2 -5 12 -9 24 -6 18 -3 20 24 16 16 -2 30 -8
30 -13z m4189 -3754 c26 -19 59 -39 73 -44 32 -12 43 -63 29 -138 -17 -86 -36
-118 -122 -208 -67 -70 -84 -83 -92 -70 -14 25 -4 446 11 473 18 31 47 28 101
-13z"/>
</g>
</svg>
